<?xml version="1.0" encoding="UTF-8"?>
<svg version="1.1" xmlns="http://www.w3.org/2000/svg" width="381" height="390">
<path d="M0 0 C2.14576637 -0.02685938 4.29162645 -0.04633088 6.4375 -0.0625 C7.63246094 -0.07410156 8.82742187 -0.08570313 10.05859375 -0.09765625 C13 -0 13 -0 14 1 C14.14115161 3.67058851 14.04247107 6.32432238 14 9 C11.08291076 10.98362069 9.87619096 10.9876191 6.25 10.625 C5.1775 10.41875 4.105 10.2125 3 10 C3.06000106 11.6260287 3.1487885 13.25101549 3.25 14.875 C3.29640625 15.77992187 3.3428125 16.68484375 3.390625 17.6171875 C3.75611148 20.17110544 3.75611148 20.17110544 6.046875 21.3203125 C6.69140625 21.54460938 7.3359375 21.76890625 8 22 C9.98 18.535 9.98 18.535 12 15 C12.66 15 13.32 15 14 15 C14.4021875 15.9590625 14.4021875 15.9590625 14.8125 16.9375 C15.88667752 19.33131686 15.88667752 19.33131686 19 20 C21.82688098 20.28792982 24.64245902 20.5314973 27.4753418 20.74023438 C28.34075089 20.8070491 29.20615997 20.87386383 30.09779358 20.94270325 C32.96467913 21.16321949 35.83193954 21.37841827 38.69921875 21.59375 C40.69361792 21.74647995 42.68798708 21.8996023 44.68232727 22.05310059 C49.94139756 22.45706519 55.20078073 22.85679021 60.46026611 23.25531006 C68.86097241 23.89225439 77.2612877 24.53428273 85.66141701 25.17878723 C88.5903612 25.40270595 91.51949311 25.62403151 94.44865417 25.84509277 C96.25833804 25.98322877 98.0680155 26.12144869 99.87768555 26.25976562 C100.68577667 26.32005447 101.4938678 26.38034332 102.32644653 26.44245911 C104.55247368 26.61387932 106.77609741 26.80307949 109 27 C109.75002604 27.05886887 110.50005207 27.11773773 111.27280617 27.1783905 C113.19265837 27.36196579 115.09952111 27.67180436 117 28 C119 30.5625 119 30.5625 120 33 C120.81360995 31.70903219 121.62585046 30.41720125 122.4375 29.125 C123.11619141 28.04605469 123.11619141 28.04605469 123.80859375 26.9453125 C125.02461501 25.0222453 125.02461501 25.0222453 126 23 C126.99 23 127.98 23 129 23 C135.61568218 31.14914808 134.57583418 40.17206579 134.3125 50.0625 C134.28737952 51.70764831 134.26457298 53.35283366 134.24414062 54.99804688 C134.18945494 58.99962393 134.1033953 62.99939731 134 67 C135.0621875 66.99419922 136.124375 66.98839844 137.21875 66.98242188 C151.1468358 66.92890298 151.1468358 66.92890298 158 67.5 C159.155 67.5928125 160.31 67.685625 161.5 67.78125 C162.325 67.8534375 163.15 67.925625 164 68 C163.91878906 67.443125 163.83757812 66.88625 163.75390625 66.3125 C163.4476444 62.61235686 163.33832317 60.01165466 165.41796875 56.83203125 C166.64204584 55.48267548 167.89535623 54.15928954 169.17578125 52.86328125 C171.54265752 50.4457224 173.21199101 47.86081439 175 45 C179.03998188 46.5217869 180.70900742 49.00921224 183.125 52.5 C185.84168269 56.43530739 185.84168269 56.43530739 189 60 C189.14507695 62.74485593 189.18652423 65.38480543 189.125 68.125 C189.11597656 68.87910156 189.10695313 69.63320312 189.09765625 70.41015625 C189.0740687 72.27357254 189.03819719 74.13682593 189 76 C193.29 76 197.58 76 202 76 C202 78.64 202 81.28 202 84 C202.804375 84.144375 203.60875 84.28875 204.4375 84.4375 C207 85 207 85 208 86 C208.02653477 87.89576211 208.04617633 89.79162247 208.0625 91.6875 C208.3055755 96.14538483 208.3055755 96.14538483 210.59765625 99.77734375 C211.98795951 100.70153378 213.39547382 101.60019419 214.81640625 102.4765625 C222.92973306 108.13702306 228.5591719 121.1889273 231.8203125 130.2890625 C231.87960937 130.85367188 231.93890625 131.41828125 232 132 C231.34 132.66 230.68 133.32 230 134 C229.443125 133.29875 228.88625 132.5975 228.3125 131.875 C216.65150067 116.72075266 216.65150067 116.72075266 199.6015625 109.5234375 C186.18375812 108.97042604 177.59829138 115.25751532 167.70235825 123.63464069 C166 125 166 125 163.96002579 126.25698376 C160.28298589 128.79204612 158.29049483 130.71550774 157.28627777 135.15589333 C157.04141342 139.22257684 157.05513783 143.21868113 157.15527344 147.28833008 C157.16408739 148.84632811 157.16930215 150.40435002 157.17120361 151.96237183 C157.18291327 155.31108488 157.21981204 158.65822692 157.27642059 162.00647926 C157.3658858 167.31734181 157.39791488 172.62762989 157.42242432 177.93913269 C157.46792424 186.35752568 157.55076301 194.77506181 157.65001512 203.19297761 C157.82699328 218.2205706 157.96076694 233.2484304 158.0509913 248.27679366 C158.08430607 253.53892513 158.14067204 258.800167 158.21435285 264.0618791 C158.69266276 300.06115796 151.938606 329.05834929 126.44750977 355.88549805 C105.00284985 377.8809242 76.13588784 389.53638571 45.50366211 390.35595703 C12.69725796 390.60548404 -17.55389514 378.7420123 -41.1875 355.90625 C-60.67783931 336.25527602 -72.32314152 309.47891554 -72.22084236 281.87572765 C-72.15950222 275.41355132 -72.0244213 268.95306785 -71.87274551 262.49246788 C-71.7502313 257.17401379 -71.67591823 251.85552158 -71.61129761 246.53608704 C-71.5884978 244.70368058 -71.56566469 242.87127454 -71.542799 241.0388689 C-71.53139562 240.12238343 -71.51999225 239.20589795 -71.50824332 238.26164019 C-71.35094632 225.90826444 -71.15503267 213.55674423 -70.86181641 201.20581055 C-70.66332648 192.82886067 -70.52982565 184.45353706 -70.46908844 176.07442313 C-70.43436636 171.65553578 -70.36711158 167.24271917 -70.21912003 162.82605553 C-68.90612992 145.40532063 -68.90612992 145.40532063 -73.73668671 129.29114151 C-77.82006211 125.03341051 -82.42144416 122.38414411 -87.78870773 120.03653908 C-91.1508987 118.46051841 -93.87094399 116.32009037 -96.8125 114.0625 C-112.20339019 103.59211745 -130.80684672 98.28573659 -149 95 C-148.67 94.01 -148.34 93.02 -148 92 C-113.22793616 91.17751669 -113.22793616 91.17751669 -100 96 C-99.01 96.33 -98.02 96.66 -97 97 C-97.00079559 96.19677811 -97.00159119 95.39355621 -97.00241089 94.56599426 C-97.00462065 86.98835616 -96.97817967 79.41161158 -96.9197216 71.83421803 C-96.89067467 67.93871431 -96.87262707 64.04381203 -96.87988281 60.14819336 C-96.8864806 56.38705653 -96.86396841 52.62710765 -96.82144547 48.86621666 C-96.81032179 47.43298256 -96.80960768 45.99962787 -96.81957626 44.56638527 C-96.88784178 33.3063261 -96.88784178 33.3063261 -94.69700623 30.08283997 C-93.1027832 28.76220703 -93.1027832 28.76220703 -90 27 C-88.37374624 25.07287633 -86.80911718 23.09194425 -85.3125 21.0625 C-84.56613281 20.06347656 -83.81976563 19.06445312 -83.05078125 18.03515625 C-81.07643547 15.11312449 -79.49690645 12.18864835 -78 9 C-76.18359375 9.19921875 -76.18359375 9.19921875 -74 10 C-72.47265625 12.14453125 -72.47265625 12.14453125 -71.0625 14.8125 C-67.78038198 21.00189805 -63.36374447 23.97661995 -57.24609375 27.20703125 C-56.14330078 27.79419922 -55.04050781 28.38136719 -53.90429688 28.98632812 C-52.76025391 29.58896484 -51.61621094 30.19160156 -50.4375 30.8125 C-41.83997288 35.36179739 -33.36291807 40.03270932 -25 45 C-25.00169189 44.16976318 -25.00169189 44.16976318 -25.00341797 43.32275391 C-24.9062621 23.02562568 -24.9062621 23.02562568 -18 15 C-17.01 15.33 -16.02 15.66 -15 16 C-13.8125 19.5625 -13.8125 19.5625 -13 23 C-9.81066915 20.72190654 -7.50347942 18.46474064 -5.3125 15.25 C-4.1678125 13.64125 -4.1678125 13.64125 -3 12 C-2.34 12 -1.68 12 -1 12 C-0.67 8.04 -0.34 4.08 0 0 Z M8 4 C8.33 5.32 8.66 6.64 9 8 C9.66 7.67 10.32 7.34 11 7 C11 6.01 11 5.02 11 4 C10.01 4 9.02 4 8 4 Z M-78.61328125 16.578125 C-80.44964442 19.78529448 -80.29759356 22.08021467 -80.1875 25.75 C-80.125625 27.8125 -80.06375 29.875 -80 32 C-74.39 32 -68.78 32 -63 32 C-63.86625 30.865625 -64.7325 29.73125 -65.625 28.5625 C-68.52212207 24.72484304 -71.14548767 20.75771855 -73.703125 16.6875 C-74.13109375 16.130625 -74.5590625 15.57375 -75 15 C-77.13784938 14.76690836 -77.13784938 14.76690836 -78.61328125 16.578125 Z M-2 18 C-2 20.31 -2 22.62 -2 25 C-0.35 25 1.3 25 3 25 C1.02 21.535 1.02 21.535 -1 18 C-1.33 18 -1.66 18 -2 18 Z M-17 22 C-17 22.99 -17 23.98 -17 25 C-16.34 24.67 -15.68 24.34 -15 24 C-15.66 23.34 -16.32 22.68 -17 22 Z M13 22 C13 22.99 13 23.98 13 25 C13.66 24.67 14.32 24.34 15 24 C14.34 23.34 13.68 22.68 13 22 Z M-17 28 C-17 39.88 -17 51.76 -17 64 C-16.01 64 -15.02 64 -14 64 C-14 52.12 -14 40.24 -14 28 C-14.99 28 -15.98 28 -17 28 Z M-2 28 C-2 36.91 -2 45.82 -2 55 C0.64 55 3.28 55 6 55 C6 46.09 6 37.18 6 28 C3.36 28 0.72 28 -2 28 Z M13 28 C13 36.91 13 45.82 13 55 C13.99 55 14.98 55 16 55 C16 46.09 16 37.18 16 28 C15.01 28 14.02 28 13 28 Z M-80 35 C-80.24917904 44.49285032 -80.45068298 53.98350715 -80.56993389 63.47889614 C-80.62718913 67.88878417 -80.70474251 72.29630726 -80.82983398 76.70483398 C-80.94995002 80.96500153 -81.01524238 85.22290542 -81.04364967 89.48463631 C-81.06387289 91.1047638 -81.10337085 92.72477624 -81.16303062 94.3439312 C-81.63256962 103.71913204 -81.63256962 103.71913204 -77.65811157 111.91433716 C-74.87490298 114.21224077 -72.07049558 116.11050069 -69 118 C-67.27566831 119.33373549 -65.56437487 120.6847545 -63.875 122.0625 C-61.67696973 124.09406614 -61.67696973 124.09406614 -59 125 C-59 95.3 -59 65.6 -59 35 C-65.93 35 -72.86 35 -80 35 Z M129 35 C128.94617894 37.62527189 128.90641687 40.24944713 128.875 42.875 C128.85824219 43.62136719 128.84148437 44.36773437 128.82421875 45.13671875 C128.8066041 47.09194461 128.89679811 49.04742021 129 51 C129.66 51.66 130.32 52.32 131 53 C131 47.06 131 41.12 131 35 C130.34 35 129.68 35 129 35 Z M19 37 C19 39.97 19 42.94 19 46 C32.36002295 46.8067984 45.72042326 47.60699522 59.08134842 48.39872074 C65.28506456 48.76654216 71.48862657 49.13665299 77.69189453 49.51196289 C83.67620034 49.87394119 89.66083397 50.22994883 95.64574432 50.5817852 C97.93125915 50.71720362 100.21664666 50.8547883 102.50189972 50.99455452 C105.6978986 51.18965399 108.89425971 51.3771093 112.09082031 51.56274414 C113.03956528 51.62244385 113.98831024 51.68214355 114.96580505 51.74365234 C115.83796158 51.7927626 116.7101181 51.84187286 117.60870361 51.89247131 C118.36457386 51.93763917 119.12044411 51.98280703 119.89921951 52.02934361 C122.08347306 51.99883405 123.91008576 51.61372094 126 51 C124.79017422 48.48552008 123.97201502 46.90297432 122 45 C118.86196717 43.90816769 115.71521081 43.77634064 112.41381836 43.58447266 C111.44269608 43.50556793 110.47157379 43.42666321 109.47102356 43.34536743 C106.26205676 43.09138239 103.05173634 42.87757445 99.83984375 42.6640625 C97.61053806 42.49570541 95.38141712 42.32488516 93.15248108 42.15170288 C87.28462784 41.70259695 81.41483253 41.28764624 75.54400635 40.8795166 C69.56616909 40.4576516 63.59087247 40.00254737 57.61523438 39.55078125 C48.89694267 38.89655737 40.17791877 38.2544518 31.45678711 37.63916016 C30.07978134 37.5410907 30.07978134 37.5410907 28.67495728 37.44104004 C27.41531914 37.35307663 27.41531914 37.35307663 26.13023376 37.26333618 C25.03602316 37.18653342 25.03602316 37.18653342 23.9197073 37.10817909 C22.28200668 37.0158916 20.64029884 37 19 37 Z M-31 46 C-31 48.31 -31 50.62 -31 53 C-27.535 54.485 -27.535 54.485 -24 56 C-24 53.69 -24 51.38 -24 49 C-26.31 48.01 -28.62 47.02 -31 46 Z M19 49 C19 50.98 19 52.96 19 55 C19.66 55 20.32 55 21 55 C21.33 57.64 21.66 60.28 22 63 C55.99133996 64.59989508 89.99043674 65.85697583 124 67 C124 63.04 124 59.08 124 55 C120.34506272 53.78168757 116.83299342 53.64176493 113.01879883 53.42749023 C112.20525436 53.37857635 111.3917099 53.32966248 110.55351257 53.27926636 C107.8549144 53.11819462 105.15600745 52.96319252 102.45703125 52.80859375 C100.57149456 52.69814706 98.68597126 52.58747158 96.80046082 52.47657776 C92.83693411 52.24444804 88.87324591 52.01535829 84.90942383 51.78833008 C79.87181496 51.49952747 74.83470096 51.20294756 69.79768848 50.90394497 C65.89494383 50.67323546 61.9919498 50.44698395 58.08887291 50.22197151 C56.23477788 50.11452874 54.38076167 50.00571554 52.52683449 49.89541435 C41.33377933 49.23220194 30.21439872 48.85027005 19 49 Z M176 50 C176 52.97 176 55.94 176 59 C178.31 59 180.62 59 183 59 C182.02501855 57.4972763 181.04490611 55.99788037 180.0625 54.5 C179.51722656 53.6646875 178.97195313 52.829375 178.41015625 51.96875 C177.94480469 51.3190625 177.47945313 50.669375 177 50 C176.67 50 176.34 50 176 50 Z M129 55 C129 58.96 129 62.92 129 67 C129.66 67 130.32 67 131 67 C131 63.04 131 59.08 131 55 C130.34 55 129.68 55 129 55 Z M-31 56 C-31 59.3 -31 62.6 -31 66 C-28.69 66 -26.38 66 -24 66 C-24 64.02 -24 62.04 -24 60 C-27.465 58.02 -27.465 58.02 -31 56 Z M10 58 C10.33 70.87 10.66 83.74 11 97 C14.3 97 17.6 97 21 97 C20.73914483 91.76694918 20.47250136 86.534238 20.20043945 81.30175781 C20.10866856 79.52091515 20.01849261 77.73998956 19.92993164 75.95898438 C19.80251501 73.40210982 19.66940466 70.84558631 19.53515625 68.2890625 C19.49656998 67.49005524 19.4579837 66.69104797 19.41822815 65.86782837 C19.27963421 61.80193236 19.27963421 61.80193236 18 58 C15.36 58 12.72 58 10 58 Z M176 62 C176 75.2 176 88.4 176 102 C180.95 99.525 180.95 99.525 186 97 C186 85.45 186 73.9 186 62 C182.7 62 179.4 62 176 62 Z M-23.4609375 84.05859375 C-24.7686058 84.22150658 -24.7686058 84.22150658 -26.10269165 84.38771057 C-27.92992601 84.61652722 -29.75685966 84.84775701 -31.58349609 85.08129883 C-34.3869111 85.43901988 -37.19137639 85.78741932 -39.99609375 86.13476562 C-41.77611091 86.35882562 -43.5560614 86.58341598 -45.3359375 86.80859375 C-46.59523575 86.96490517 -46.59523575 86.96490517 -47.87997437 87.12437439 C-52.06937441 87.59247093 -52.06937441 87.59247093 -56 89 C-56 91.64 -56 94.28 -56 97 C-39.5 97 -23 97 -6 97 C-6 92.38 -6 87.76 -6 83 C-11.92313001 82.88503307 -17.58942739 83.30472464 -23.4609375 84.05859375 Z M23 83 C22.7058258 91.37896557 22.7058258 91.37896557 24 97 C44.79 97 65.58 97 87 97 C87 95.35 87 93.7 87 92 C87.55945313 92.0721875 88.11890625 92.144375 88.6953125 92.21875 C96.14082655 93.08061015 103.51172488 93.0971102 111 93 C110.95875 94.093125 110.9175 95.18625 110.875 96.3125 C110.67925334 100.08892229 110.67925334 100.08892229 113 103 C113.79921875 102.73445313 114.5984375 102.46890625 115.421875 102.1953125 C116.52015625 101.84210938 117.6184375 101.48890625 118.75 101.125 C120.35101563 100.60292969 120.35101563 100.60292969 121.984375 100.0703125 C131.8450313 97.25704914 141.54645854 96.72494792 151.75 96.875 C152.9359375 96.88402344 154.121875 96.89304687 155.34375 96.90234375 C158.22925645 96.92561396 161.11465694 96.96147168 164 97 C164 92.38 164 87.76 164 83 C117.47 83 70.94 83 23 83 Z M189 92 C189 93.32 189 94.64 189 96 C194.28 96.33 199.56 96.66 205 97 C205 95.35 205 93.7 205 92 C199.72 92 194.44 92 189 92 Z M101 96 C101 108.21 101 120.42 101 133 C103.97 133 106.94 133 110 133 C110.12418866 125.31410152 109.95213668 117.67517725 109.5625 110 C109.52326416 109.18748779 109.48402832 108.37497559 109.44360352 107.5378418 C109.23068816 103.60360731 108.92279127 99.84625606 108 96 C105.69 96 103.38 96 101 96 Z M113 120 C113 124.29 113 128.58 113 133 C120.91238291 133.46543429 125.94079392 133.05453621 132.9453125 129.41015625 C135.96004235 128.01844592 138.82204764 127.16560022 142.01586914 126.31640625 C150.5559287 124.02297667 155.17366202 120.81748513 161 114 C161.99 113.34 162.98 112.68 164 112 C164.2502157 108.91634129 164.2502157 108.91634129 164 106 C145.11888939 105.67548091 129.51473703 111.29086056 113 120 Z M-56 116 C-57.36576776 127.19486535 -57.36576776 127.19486535 -53.3125 130.875 C-49.33320067 132.22646015 -48.67562811 131.74537962 -45 130 C-42.19262249 128.53723 -39.40383568 127.04424376 -36.62109375 125.53515625 C-27.56729864 121.69681593 -18.64935175 120.4653655 -8.875 120.5625 C-7.78968994 120.57007324 -6.70437988 120.57764648 -5.58618164 120.58544922 C9.83404957 120.89719889 26.31222836 124.48830511 39.92279053 132.07125854 C42.29128321 133.13023568 43.90833828 133.2419061 46.49316406 133.22705078 C47.37377502 133.22689972 48.25438599 133.22674866 49.16168213 133.22659302 C50.10348328 133.21627045 51.04528442 133.20594788 52.015625 133.1953125 C53.47207428 133.19106766 53.47207428 133.19106766 54.95794678 133.18673706 C58.05542385 133.17555292 61.1526105 133.15045142 64.25 133.125 C66.35155832 133.11496792 68.45312118 133.10584247 70.5546875 133.09765625 C75.70323669 133.07561934 80.85156913 133.04110145 86 133 C86.33 127.39 86.66 121.78 87 116 C39.81 116 -7.38 116 -56 116 Z M103.5793457 192.57617188 C101.74268867 194.35108301 99.89276214 196.11237023 98.02954102 197.859375 C95.34617593 200.37838427 92.71147087 202.94051724 90.08203125 205.515625 C89.24364212 206.28489319 88.40525299 207.05416138 87.54145813 207.84674072 C83.14942324 212.21215991 83.14942324 212.21215991 81.91290283 218.07427979 C82.40956564 221.14589119 83.12354822 224.01692678 84 227 C84.37123945 228.7730738 84.73049645 230.5487615 85.0703125 232.328125 C85.41922695 233.9693152 85.7707499 235.60995322 86.125 237.25 C86.30675781 238.10207031 86.48851562 238.95414063 86.67578125 239.83203125 C87.11480908 241.88853002 87.55704475 243.94434359 88 246 C89.44289167 243.27810367 90.48218198 240.67060577 91.31274414 237.70629883 C91.54961441 236.86895706 91.78648468 236.0316153 92.03053284 235.16889954 C92.27955856 234.273983 92.52858429 233.37906647 92.78515625 232.45703125 C93.04630722 231.53282883 93.30745819 230.6086264 93.57652283 229.65641785 C94.4089841 226.7095009 95.23625836 223.76116636 96.0625 220.8125 C96.89256321 217.85319634 97.72380864 214.89425452 98.55918884 211.93644714 C99.07877782 210.09661368 99.59526271 208.25590034 100.1084137 206.41426086 C100.45899086 205.17243294 100.45899086 205.17243294 100.81665039 203.90551758 C101.02157608 203.17367752 101.22650177 202.44183746 101.43763733 201.68782043 C102 200 102 200 103 199 C109.23076923 198.53846154 109.23076923 198.53846154 111.875 200.125 C113.98110047 203.63516744 114.13704168 207.0949804 113.53302002 211.08392334 C113.25560974 212.17739075 112.97819946 213.27085815 112.69238281 214.39746094 C112.38165833 215.64605896 112.07093384 216.89465698 111.75079346 218.18109131 C111.40188155 219.5322662 111.05265066 220.88335875 110.703125 222.234375 C110.34919466 223.6364961 109.99624457 225.03886497 109.64422607 226.44146729 C108.71554755 230.12940854 107.77240961 233.81350725 106.82653809 237.49707031 C106.06279125 240.48155296 105.30942409 243.46860697 104.55662918 246.45586777 C103.65073664 250.04961959 102.74005069 253.64214995 101.828125 257.234375 C101.65743752 257.90730339 101.48675003 258.58023178 101.3108902 259.27355194 C95.71357225 281.28642775 95.71357225 281.28642775 94 283 C85.57954545 283.48579545 85.57954545 283.48579545 82 281 C79.38799787 275.15920027 78.14036812 268.70616451 76.80859375 262.4765625 C76.41737578 260.69660182 76.02609804 258.91665427 75.63476562 257.13671875 C75.03168993 254.36548348 74.43075259 251.59379831 73.83129883 248.82177734 C73.24569876 246.12218239 72.65249336 243.42434167 72.05859375 240.7265625 C71.79289833 239.47971176 71.79289833 239.47971176 71.52183533 238.20767212 C70.73408984 234.63984704 70.04751547 232.07127321 68 229 C66.49403892 230.45217676 64.99537896 231.91192861 63.5 233.375 C62.24703125 234.59316406 62.24703125 234.59316406 60.96875 235.8359375 C58.77568714 237.7589659 58.77568714 237.7589659 59 240 C60.06801128 240.91878231 61.18067163 241.78608787 62.3125 242.625 C66.20695598 245.86379706 68.07763979 249.01132056 69 254 C68.8125 257.4375 68.8125 257.4375 68 260 C64.48197895 261.75901053 60.81730474 261.82030068 57 261 C55.1628515 259.36372423 53.8549911 257.6204103 52.40234375 255.640625 C50.97423603 253.70424435 50.97423603 253.70424435 47.875 252.8125 C44.91769723 252.76006069 44.91769723 252.76006069 42.625 254.625 C40.68508435 257.46026133 40.63400331 258.62978048 41 262 C43.96425813 266.91752755 48.56650345 270.5378786 53.0625 274 C58.35856801 278.09315012 62.85025398 282.55076194 65 289 C66.21641739 305.81048946 66.21641739 305.81048946 61 312 C53.5098062 317.96158282 45.16579383 317.85453471 36 317 C28.43256597 315.22623202 22.34393644 311.51590466 18 305 C17.76953125 302.15234375 17.76953125 302.15234375 17.8125 298.9375 C17.81894531 297.87402344 17.82539063 296.81054688 17.83203125 295.71484375 C18 293 18 293 19 291 C22.30448122 290.40688799 24.34915862 290.56138951 27.15625 292.453125 C28.69732209 293.70920431 30.23368059 294.97108563 31.765625 296.23828125 C35.74275021 299.37409151 39.11968769 301.07095518 44.3125 300.875 C47.31010603 300.20590682 47.31010603 300.20590682 49 297 C48.79150969 292.04331099 47.29654762 289.61744405 43.9375 286.0625 C42.72320312 284.77666016 42.72320312 284.77666016 41.484375 283.46484375 C38.69842933 280.70080017 35.83703107 278.08414752 32.82421875 275.5703125 C30.78826179 273.81773285 28.89955997 271.89955997 27 270 C11.49 285.51 -4.02 301.02 -20 317 C-6.68690608 334.75079189 10.03152356 344.57613453 31.875 348.375 C53.29561057 350.88654848 75.13538698 345.53436235 92.23535156 332.17285156 C108.06634202 319.03850391 118.91022784 300.63434441 121 280 C121.13521303 276.58278573 121.12663263 273.16974712 121.11352539 269.75024414 C121.11374443 268.24178421 121.11374443 268.24178421 121.1139679 266.70285034 C121.11327427 263.39692995 121.10550766 260.09106673 121.09765625 256.78515625 C121.09579012 254.48587576 121.09436714 252.18659487 121.09336853 249.88731384 C121.08955873 243.84901829 121.07974159 237.81074695 121.06866455 231.77246094 C121.05841735 225.60547208 121.05386383 219.4384793 121.04882812 213.27148438 C121.03811792 201.18097897 121.02106 189.0904915 121 177 C116.15213538 177 106.98866677 189.25810379 103.5793457 192.57617188 Z M-0.9375 207.375 C-1.98357422 207.50132812 -3.02964844 207.62765625 -4.10742188 207.7578125 C-9.87620867 208.48298997 -15.39552323 209.44882111 -21 211 C-20.42655063 213.86724686 -20.1385485 214.8614515 -18 217 C-15.1404923 217.42645229 -15.1404923 217.42645229 -11.9375 217.5625 C-6.09722222 217.90277778 -6.09722222 217.90277778 -5 219 C-4.87642922 220.93223995 -4.82205542 222.86893799 -4.79467773 224.80493164 C-4.77473251 226.04614273 -4.75478729 227.28735382 -4.73423767 228.56617737 C-4.71725207 229.9308357 -4.70037331 231.29549537 -4.68359375 232.66015625 C-4.66303064 234.04878875 -4.64203434 235.4374149 -4.62062073 236.82603455 C-4.56533353 240.48714059 -4.51595374 244.14830373 -4.46777344 247.80950928 C-4.41760679 251.54297997 -4.36189554 255.27636738 -4.30664062 259.00976562 C-4.19897782 266.3397733 -4.09755106 273.66985005 -4 281 C-0.535 281.495 -0.535 281.495 3 282 C3.01839432 281.21517242 3.03678864 280.43034485 3.05574036 279.62173462 C3.23147954 272.23440642 3.42124185 264.8476363 3.62686634 257.46108437 C3.73208917 253.6633297 3.83183559 249.86559385 3.91918945 246.06738281 C4.00365196 242.40356955 4.10233884 238.74039346 4.21100426 235.07722092 C4.24999157 233.67788316 4.2838047 232.27839157 4.31241798 230.87880325 C4.35329136 228.9222888 4.41407988 226.96622076 4.47583008 225.01025391 C4.50469803 223.8955069 4.53356598 222.78075989 4.56330872 221.63223267 C4.70741684 220.76359589 4.85152496 219.89495911 5 219 C8.69880785 216.5341281 11.28702757 216.60196264 15.625 216.34375 C18.26194296 216.13577769 18.26194296 216.13577769 21 214 C22.08568503 212.15732132 22.08568503 212.15732132 22 210 C20.58709872 207.58526981 20.58709872 207.58526981 18 206 C11.64272128 205.573337 5.36122174 206.57074333 -0.9375 207.375 Z M69 211 C69.66 213.97 70.32 216.94 71 220 C72.98 218.35 74.96 216.7 77 215 C76.34 213.02 75.68 211.04 75 209 C71.81509993 208.7226499 71.81509993 208.7226499 69 211 Z M33.75 246.3125 C29.77990638 251.25952765 28.69905753 255.68020822 29 262 C34.06623768 257.76183463 38.80038069 253.32591037 43.4375 248.625 C44.39172852 247.66400391 44.39172852 247.66400391 45.36523438 246.68359375 C46.91250332 245.12469121 48.45736492 243.56348584 50 242 C49.67 241.34 49.34 240.68 49 240 C42.33409116 239.52386365 38.20297947 241.42719243 33.75 246.3125 Z " fill="#C3C2C2" transform="translate(149,0)"/>
<path d="M0 0 C2.14576637 -0.02685938 4.29162645 -0.04633088 6.4375 -0.0625 C7.63246094 -0.07410156 8.82742187 -0.08570313 10.05859375 -0.09765625 C13 -0 13 -0 14 1 C14.14115161 3.67058851 14.04247107 6.32432238 14 9 C11.08291076 10.98362069 9.87619096 10.9876191 6.25 10.625 C5.1775 10.41875 4.105 10.2125 3 10 C3.06000106 11.6260287 3.1487885 13.25101549 3.25 14.875 C3.29640625 15.77992187 3.3428125 16.68484375 3.390625 17.6171875 C3.75611148 20.17110544 3.75611148 20.17110544 6.046875 21.3203125 C6.69140625 21.54460938 7.3359375 21.76890625 8 22 C9.98 18.535 9.98 18.535 12 15 C12.66 15 13.32 15 14 15 C14.4021875 15.9590625 14.4021875 15.9590625 14.8125 16.9375 C15.88667752 19.33131686 15.88667752 19.33131686 19 20 C21.82688098 20.28792982 24.64245902 20.5314973 27.4753418 20.74023438 C28.34075089 20.8070491 29.20615997 20.87386383 30.09779358 20.94270325 C32.96467913 21.16321949 35.83193954 21.37841827 38.69921875 21.59375 C40.69361792 21.74647995 42.68798708 21.8996023 44.68232727 22.05310059 C49.94139756 22.45706519 55.20078073 22.85679021 60.46026611 23.25531006 C68.86097241 23.89225439 77.2612877 24.53428273 85.66141701 25.17878723 C88.5903612 25.40270595 91.51949311 25.62403151 94.44865417 25.84509277 C96.25833804 25.98322877 98.0680155 26.12144869 99.87768555 26.25976562 C100.68577667 26.32005447 101.4938678 26.38034332 102.32644653 26.44245911 C104.55247368 26.61387932 106.77609741 26.80307949 109 27 C109.75002604 27.05886887 110.50005207 27.11773773 111.27280617 27.1783905 C113.19265837 27.36196579 115.09952111 27.67180436 117 28 C119 30.5625 119 30.5625 120 33 C120.81360995 31.70903219 121.62585046 30.41720125 122.4375 29.125 C123.11619141 28.04605469 123.11619141 28.04605469 123.80859375 26.9453125 C125.02461501 25.0222453 125.02461501 25.0222453 126 23 C126.99 23 127.98 23 129 23 C135.61568218 31.14914808 134.57583418 40.17206579 134.3125 50.0625 C134.28737952 51.70764831 134.26457298 53.35283366 134.24414062 54.99804688 C134.18945494 58.99962393 134.1033953 62.99939731 134 67 C135.0621875 66.99419922 136.124375 66.98839844 137.21875 66.98242188 C151.1468358 66.92890298 151.1468358 66.92890298 158 67.5 C159.155 67.5928125 160.31 67.685625 161.5 67.78125 C162.325 67.8534375 163.15 67.925625 164 68 C163.91878906 67.443125 163.83757812 66.88625 163.75390625 66.3125 C163.4476444 62.61235686 163.33832317 60.01165466 165.41796875 56.83203125 C166.64204584 55.48267548 167.89535623 54.15928954 169.17578125 52.86328125 C171.54265752 50.4457224 173.21199101 47.86081439 175 45 C179.03998188 46.5217869 180.70900742 49.00921224 183.125 52.5 C185.84168269 56.43530739 185.84168269 56.43530739 189 60 C189.14507695 62.74485593 189.18652423 65.38480543 189.125 68.125 C189.11597656 68.87910156 189.10695313 69.63320312 189.09765625 70.41015625 C189.0740687 72.27357254 189.03819719 74.13682593 189 76 C193.29 76 197.58 76 202 76 C202 78.64 202 81.28 202 84 C202.804375 84.144375 203.60875 84.28875 204.4375 84.4375 C207 85 207 85 208 86 C208.02653477 87.89576211 208.04617633 89.79162247 208.0625 91.6875 C208.3055755 96.14538483 208.3055755 96.14538483 210.59765625 99.77734375 C211.98795951 100.70153378 213.39547382 101.60019419 214.81640625 102.4765625 C222.92973306 108.13702306 228.5591719 121.1889273 231.8203125 130.2890625 C231.87960937 130.85367188 231.93890625 131.41828125 232 132 C231.34 132.66 230.68 133.32 230 134 C229.443125 133.29875 228.88625 132.5975 228.3125 131.875 C216.65150067 116.72075266 216.65150067 116.72075266 199.6015625 109.5234375 C186.18375812 108.97042604 177.59829138 115.25751532 167.70235825 123.63464069 C166 125 166 125 163.96002579 126.25698376 C160.28298589 128.79204612 158.29049483 130.71550774 157.28627777 135.15589333 C157.04141342 139.22257684 157.05513783 143.21868113 157.15527344 147.28833008 C157.16408739 148.84632811 157.16930215 150.40435002 157.17120361 151.96237183 C157.18291327 155.31108488 157.21981204 158.65822692 157.27642059 162.00647926 C157.3658858 167.31734181 157.39791488 172.62762989 157.42242432 177.93913269 C157.46792424 186.35752568 157.55076301 194.77506181 157.65001512 203.19297761 C157.82699328 218.2205706 157.96076694 233.2484304 158.0509913 248.27679366 C158.08430607 253.53892513 158.14067204 258.800167 158.21435285 264.0618791 C158.69266276 300.06115796 151.938606 329.05834929 126.44750977 355.88549805 C105.00284985 377.8809242 76.13588784 389.53638571 45.50366211 390.35595703 C12.69725796 390.60548404 -17.55389514 378.7420123 -41.1875 355.90625 C-60.67783931 336.25527602 -72.32314152 309.47891554 -72.22084236 281.87572765 C-72.15950222 275.41355132 -72.0244213 268.95306785 -71.87274551 262.49246788 C-71.7502313 257.17401379 -71.67591823 251.85552158 -71.61129761 246.53608704 C-71.5884978 244.70368058 -71.56566469 242.87127454 -71.542799 241.0388689 C-71.53139562 240.12238343 -71.51999225 239.20589795 -71.50824332 238.26164019 C-71.35094632 225.90826444 -71.15503267 213.55674423 -70.86181641 201.20581055 C-70.66332648 192.82886067 -70.52982565 184.45353706 -70.46908844 176.07442313 C-70.43436636 171.65553578 -70.36711158 167.24271917 -70.21912003 162.82605553 C-68.90612992 145.40532063 -68.90612992 145.40532063 -73.73668671 129.29114151 C-77.82006211 125.03341051 -82.42144416 122.38414411 -87.78870773 120.03653908 C-91.1508987 118.46051841 -93.87094399 116.32009037 -96.8125 114.0625 C-112.20339019 103.59211745 -130.80684672 98.28573659 -149 95 C-148.67 94.01 -148.34 93.02 -148 92 C-113.22793616 91.17751669 -113.22793616 91.17751669 -100 96 C-99.01 96.33 -98.02 96.66 -97 97 C-97.00079559 96.19677811 -97.00159119 95.39355621 -97.00241089 94.56599426 C-97.00462065 86.98835616 -96.97817967 79.41161158 -96.9197216 71.83421803 C-96.89067467 67.93871431 -96.87262707 64.04381203 -96.87988281 60.14819336 C-96.8864806 56.38705653 -96.86396841 52.62710765 -96.82144547 48.86621666 C-96.81032179 47.43298256 -96.80960768 45.99962787 -96.81957626 44.56638527 C-96.88784178 33.3063261 -96.88784178 33.3063261 -94.69700623 30.08283997 C-93.1027832 28.76220703 -93.1027832 28.76220703 -90 27 C-88.37374624 25.07287633 -86.80911718 23.09194425 -85.3125 21.0625 C-84.56613281 20.06347656 -83.81976563 19.06445312 -83.05078125 18.03515625 C-81.07643547 15.11312449 -79.49690645 12.18864835 -78 9 C-76.18359375 9.19921875 -76.18359375 9.19921875 -74 10 C-72.47265625 12.14453125 -72.47265625 12.14453125 -71.0625 14.8125 C-67.78038198 21.00189805 -63.36374447 23.97661995 -57.24609375 27.20703125 C-56.14330078 27.79419922 -55.04050781 28.38136719 -53.90429688 28.98632812 C-52.76025391 29.58896484 -51.61621094 30.19160156 -50.4375 30.8125 C-41.83997288 35.36179739 -33.36291807 40.03270932 -25 45 C-25.00169189 44.16976318 -25.00169189 44.16976318 -25.00341797 43.32275391 C-24.9062621 23.02562568 -24.9062621 23.02562568 -18 15 C-17.01 15.33 -16.02 15.66 -15 16 C-13.8125 19.5625 -13.8125 19.5625 -13 23 C-9.81066915 20.72190654 -7.50347942 18.46474064 -5.3125 15.25 C-4.1678125 13.64125 -4.1678125 13.64125 -3 12 C-2.34 12 -1.68 12 -1 12 C-0.67 8.04 -0.34 4.08 0 0 Z M8 4 C8.33 5.32 8.66 6.64 9 8 C9.66 7.67 10.32 7.34 11 7 C11 6.01 11 5.02 11 4 C10.01 4 9.02 4 8 4 Z M-78.61328125 16.578125 C-80.44964442 19.78529448 -80.29759356 22.08021467 -80.1875 25.75 C-80.125625 27.8125 -80.06375 29.875 -80 32 C-74.39 32 -68.78 32 -63 32 C-63.86625 30.865625 -64.7325 29.73125 -65.625 28.5625 C-68.52212207 24.72484304 -71.14548767 20.75771855 -73.703125 16.6875 C-74.13109375 16.130625 -74.5590625 15.57375 -75 15 C-77.13784938 14.76690836 -77.13784938 14.76690836 -78.61328125 16.578125 Z M-2 18 C-2 20.31 -2 22.62 -2 25 C-0.35 25 1.3 25 3 25 C1.02 21.535 1.02 21.535 -1 18 C-1.33 18 -1.66 18 -2 18 Z M-17 22 C-17 22.99 -17 23.98 -17 25 C-16.34 24.67 -15.68 24.34 -15 24 C-15.66 23.34 -16.32 22.68 -17 22 Z M13 22 C13 22.99 13 23.98 13 25 C13.66 24.67 14.32 24.34 15 24 C14.34 23.34 13.68 22.68 13 22 Z M-17 28 C-17 39.88 -17 51.76 -17 64 C-16.01 64 -15.02 64 -14 64 C-14 52.12 -14 40.24 -14 28 C-14.99 28 -15.98 28 -17 28 Z M-2 28 C-2 36.91 -2 45.82 -2 55 C0.64 55 3.28 55 6 55 C6 46.09 6 37.18 6 28 C3.36 28 0.72 28 -2 28 Z M13 28 C13 36.91 13 45.82 13 55 C13.99 55 14.98 55 16 55 C16 46.09 16 37.18 16 28 C15.01 28 14.02 28 13 28 Z M-80 35 C-80.24917904 44.49285032 -80.45068298 53.98350715 -80.56993389 63.47889614 C-80.62718913 67.88878417 -80.70474251 72.29630726 -80.82983398 76.70483398 C-80.94995002 80.96500153 -81.01524238 85.22290542 -81.04364967 89.48463631 C-81.06387289 91.1047638 -81.10337085 92.72477624 -81.16303062 94.3439312 C-81.63256962 103.71913204 -81.63256962 103.71913204 -77.65811157 111.91433716 C-74.87490298 114.21224077 -72.07049558 116.11050069 -69 118 C-67.27566831 119.33373549 -65.56437487 120.6847545 -63.875 122.0625 C-61.67696973 124.09406614 -61.67696973 124.09406614 -59 125 C-59 95.3 -59 65.6 -59 35 C-65.93 35 -72.86 35 -80 35 Z M129 35 C128.94617894 37.62527189 128.90641687 40.24944713 128.875 42.875 C128.85824219 43.62136719 128.84148437 44.36773437 128.82421875 45.13671875 C128.8066041 47.09194461 128.89679811 49.04742021 129 51 C129.66 51.66 130.32 52.32 131 53 C131 47.06 131 41.12 131 35 C130.34 35 129.68 35 129 35 Z M19 37 C19 39.97 19 42.94 19 46 C32.36002295 46.8067984 45.72042326 47.60699522 59.08134842 48.39872074 C65.28506456 48.76654216 71.48862657 49.13665299 77.69189453 49.51196289 C83.67620034 49.87394119 89.66083397 50.22994883 95.64574432 50.5817852 C97.93125915 50.71720362 100.21664666 50.8547883 102.50189972 50.99455452 C105.6978986 51.18965399 108.89425971 51.3771093 112.09082031 51.56274414 C113.03956528 51.62244385 113.98831024 51.68214355 114.96580505 51.74365234 C115.83796158 51.7927626 116.7101181 51.84187286 117.60870361 51.89247131 C118.36457386 51.93763917 119.12044411 51.98280703 119.89921951 52.02934361 C122.08347306 51.99883405 123.91008576 51.61372094 126 51 C124.79017422 48.48552008 123.97201502 46.90297432 122 45 C118.86196717 43.90816769 115.71521081 43.77634064 112.41381836 43.58447266 C111.44269608 43.50556793 110.47157379 43.42666321 109.47102356 43.34536743 C106.26205676 43.09138239 103.05173634 42.87757445 99.83984375 42.6640625 C97.61053806 42.49570541 95.38141712 42.32488516 93.15248108 42.15170288 C87.28462784 41.70259695 81.41483253 41.28764624 75.54400635 40.8795166 C69.56616909 40.4576516 63.59087247 40.00254737 57.61523438 39.55078125 C48.89694267 38.89655737 40.17791877 38.2544518 31.45678711 37.63916016 C30.07978134 37.5410907 30.07978134 37.5410907 28.67495728 37.44104004 C27.41531914 37.35307663 27.41531914 37.35307663 26.13023376 37.26333618 C25.03602316 37.18653342 25.03602316 37.18653342 23.9197073 37.10817909 C22.28200668 37.0158916 20.64029884 37 19 37 Z M-31 46 C-31 48.31 -31 50.62 -31 53 C-27.535 54.485 -27.535 54.485 -24 56 C-24 53.69 -24 51.38 -24 49 C-26.31 48.01 -28.62 47.02 -31 46 Z M19 49 C19 50.98 19 52.96 19 55 C19.66 55 20.32 55 21 55 C21.33 57.64 21.66 60.28 22 63 C55.99133996 64.59989508 89.99043674 65.85697583 124 67 C124 63.04 124 59.08 124 55 C120.34506272 53.78168757 116.83299342 53.64176493 113.01879883 53.42749023 C112.20525436 53.37857635 111.3917099 53.32966248 110.55351257 53.27926636 C107.8549144 53.11819462 105.15600745 52.96319252 102.45703125 52.80859375 C100.57149456 52.69814706 98.68597126 52.58747158 96.80046082 52.47657776 C92.83693411 52.24444804 88.87324591 52.01535829 84.90942383 51.78833008 C79.87181496 51.49952747 74.83470096 51.20294756 69.79768848 50.90394497 C65.89494383 50.67323546 61.9919498 50.44698395 58.08887291 50.22197151 C56.23477788 50.11452874 54.38076167 50.00571554 52.52683449 49.89541435 C41.33377933 49.23220194 30.21439872 48.85027005 19 49 Z M176 50 C176 52.97 176 55.94 176 59 C178.31 59 180.62 59 183 59 C182.02501855 57.4972763 181.04490611 55.99788037 180.0625 54.5 C179.51722656 53.6646875 178.97195313 52.829375 178.41015625 51.96875 C177.94480469 51.3190625 177.47945313 50.669375 177 50 C176.67 50 176.34 50 176 50 Z M129 55 C129 58.96 129 62.92 129 67 C129.66 67 130.32 67 131 67 C131 63.04 131 59.08 131 55 C130.34 55 129.68 55 129 55 Z M-31 56 C-31 59.3 -31 62.6 -31 66 C-28.69 66 -26.38 66 -24 66 C-24 64.02 -24 62.04 -24 60 C-27.465 58.02 -27.465 58.02 -31 56 Z M10 58 C10.33 70.87 10.66 83.74 11 97 C14.3 97 17.6 97 21 97 C20.73914483 91.76694918 20.47250136 86.534238 20.20043945 81.30175781 C20.10866856 79.52091515 20.01849261 77.73998956 19.92993164 75.95898438 C19.80251501 73.40210982 19.66940466 70.84558631 19.53515625 68.2890625 C19.49656998 67.49005524 19.4579837 66.69104797 19.41822815 65.86782837 C19.27963421 61.80193236 19.27963421 61.80193236 18 58 C15.36 58 12.72 58 10 58 Z M176 62 C176 75.2 176 88.4 176 102 C180.95 99.525 180.95 99.525 186 97 C186 85.45 186 73.9 186 62 C182.7 62 179.4 62 176 62 Z M-23.4609375 84.05859375 C-24.7686058 84.22150658 -24.7686058 84.22150658 -26.10269165 84.38771057 C-27.92992601 84.61652722 -29.75685966 84.84775701 -31.58349609 85.08129883 C-34.3869111 85.43901988 -37.19137639 85.78741932 -39.99609375 86.13476562 C-41.77611091 86.35882562 -43.5560614 86.58341598 -45.3359375 86.80859375 C-46.59523575 86.96490517 -46.59523575 86.96490517 -47.87997437 87.12437439 C-52.06937441 87.59247093 -52.06937441 87.59247093 -56 89 C-56 91.64 -56 94.28 -56 97 C-39.5 97 -23 97 -6 97 C-6 92.38 -6 87.76 -6 83 C-11.92313001 82.88503307 -17.58942739 83.30472464 -23.4609375 84.05859375 Z M23 83 C22.7058258 91.37896557 22.7058258 91.37896557 24 97 C44.79 97 65.58 97 87 97 C87 95.35 87 93.7 87 92 C87.55945313 92.0721875 88.11890625 92.144375 88.6953125 92.21875 C96.14082655 93.08061015 103.51172488 93.0971102 111 93 C110.95875 94.093125 110.9175 95.18625 110.875 96.3125 C110.67925334 100.08892229 110.67925334 100.08892229 113 103 C113.79921875 102.73445313 114.5984375 102.46890625 115.421875 102.1953125 C116.52015625 101.84210938 117.6184375 101.48890625 118.75 101.125 C120.35101563 100.60292969 120.35101563 100.60292969 121.984375 100.0703125 C131.8450313 97.25704914 141.54645854 96.72494792 151.75 96.875 C152.9359375 96.88402344 154.121875 96.89304687 155.34375 96.90234375 C158.22925645 96.92561396 161.11465694 96.96147168 164 97 C164 92.38 164 87.76 164 83 C117.47 83 70.94 83 23 83 Z M189 92 C189 93.32 189 94.64 189 96 C194.28 96.33 199.56 96.66 205 97 C205 95.35 205 93.7 205 92 C199.72 92 194.44 92 189 92 Z M101 96 C101 108.21 101 120.42 101 133 C103.97 133 106.94 133 110 133 C110.12418866 125.31410152 109.95213668 117.67517725 109.5625 110 C109.52326416 109.18748779 109.48402832 108.37497559 109.44360352 107.5378418 C109.23068816 103.60360731 108.92279127 99.84625606 108 96 C105.69 96 103.38 96 101 96 Z M113 120 C113 124.29 113 128.58 113 133 C120.91238291 133.46543429 125.94079392 133.05453621 132.9453125 129.41015625 C135.96004235 128.01844592 138.82204764 127.16560022 142.01586914 126.31640625 C150.5559287 124.02297667 155.17366202 120.81748513 161 114 C161.99 113.34 162.98 112.68 164 112 C164.2502157 108.91634129 164.2502157 108.91634129 164 106 C145.11888939 105.67548091 129.51473703 111.29086056 113 120 Z M-56 116 C-57.36576776 127.19486535 -57.36576776 127.19486535 -53.3125 130.875 C-49.33320067 132.22646015 -48.67562811 131.74537962 -45 130 C-42.19262249 128.53723 -39.40383568 127.04424376 -36.62109375 125.53515625 C-27.56729864 121.69681593 -18.64935175 120.4653655 -8.875 120.5625 C-7.78968994 120.57007324 -6.70437988 120.57764648 -5.58618164 120.58544922 C9.83404957 120.89719889 26.31222836 124.48830511 39.92279053 132.07125854 C42.29128321 133.13023568 43.90833828 133.2419061 46.49316406 133.22705078 C47.37377502 133.22689972 48.25438599 133.22674866 49.16168213 133.22659302 C50.10348328 133.21627045 51.04528442 133.20594788 52.015625 133.1953125 C53.47207428 133.19106766 53.47207428 133.19106766 54.95794678 133.18673706 C58.05542385 133.17555292 61.1526105 133.15045142 64.25 133.125 C66.35155832 133.11496792 68.45312118 133.10584247 70.5546875 133.09765625 C75.70323669 133.07561934 80.85156913 133.04110145 86 133 C86.33 127.39 86.66 121.78 87 116 C39.81 116 -7.38 116 -56 116 Z M-69 136 C-69.061875 161.28625 -69.12375 186.5725 -69.1875 212.625 C-69.21481201 220.58963379 -69.24212402 228.55426758 -69.27026367 236.76025391 C-69.28030108 243.94108388 -69.28030108 243.94108388 -69.28633118 251.12191772 C-69.28911001 254.3038672 -69.30028757 257.48566434 -69.31672668 260.66757202 C-69.33749393 264.74197723 -69.34343881 268.81616487 -69.33921683 272.89061809 C-69.34009805 274.37612848 -69.34593365 275.86164746 -69.35764539 277.34711194 C-69.45467654 290.26731461 -67.42181304 302.32335733 -62.875 314.4375 C-62.5764209 315.23607422 -62.2778418 316.03464844 -61.97021484 316.85742188 C-51.229628 344.43683157 -28.79132982 365.97096353 -2 378 C23.1149233 388.11779701 53.38091516 390.09857449 78.98828125 380.7265625 C81 380 81 380 82.98046875 379.4609375 C96.90924579 375.54101901 109.1957615 366.31651345 120 357 C121.11955078 356.03513672 121.11955078 356.03513672 122.26171875 355.05078125 C138.75766761 339.62556335 153.24847718 314.67521396 154.12304783 291.7785511 C154.12166514 290.02806623 154.12166514 290.02806623 154.12025452 288.24221802 C154.12111053 287.58937332 154.12196655 286.93652863 154.12284851 286.26390076 C154.12449517 284.08362034 154.11899402 281.90341785 154.11352539 279.72314453 C154.11321888 278.13045695 154.11335285 276.53776923 154.11389065 274.94508171 C154.114116 270.68773633 154.10832858 266.43041918 154.10128021 262.17308044 C154.09557681 258.17520053 154.09531663 254.17732741 154.09460449 250.17944336 C154.08936136 238.49462518 154.07540017 226.80981223 154.0625 215.125 C154.041875 189.01375 154.02125 162.9025 154 136 C80.41 136 6.82 136 -69 136 Z " fill="#060606" transform="translate(149,0)"/>
<path d="M0 0 C53.46 0 106.92 0 162 0 C162.0825 18.665625 162.165 37.33125 162.25 56.5625 C162.28641602 62.42974854 162.32283203 68.29699707 162.36035156 74.34204102 C162.37841797 81.57409668 162.37841797 81.57409668 162.3817749 84.97276306 C162.38786839 87.31796821 162.40183399 89.66316178 162.42230225 92.00828552 C162.55906904 108.5210867 162.18170327 123.32864771 154.3125 138.25 C153.97001221 138.91273926 153.62752441 139.57547852 153.2746582 140.25830078 C144.82610342 156.03173919 131.64793596 166.93270287 116 175 C115.23171875 175.42152344 114.4634375 175.84304688 113.671875 176.27734375 C97.21966306 184.59764177 73.48926574 184.64881311 56.22265625 179.19921875 C43.02453636 174.28791838 32.08106382 167.88719721 22 158 C21.236875 157.27296875 20.47375 156.5459375 19.6875 155.796875 C14.89592155 150.90547199 11.41892281 145.67751982 8.1875 139.6875 C7.82648193 139.02492188 7.46546387 138.36234375 7.09350586 137.6796875 C5.96575757 135.48656696 4.98055115 133.26293525 4 131 C3.649944 130.22633087 3.299888 129.45266174 2.93922424 128.6555481 C-1.63695905 116.57210935 -0.49821352 103.63067179 -0.390625 90.91796875 C-0.38473418 88.58809797 -0.38065944 86.25822188 -0.37841797 83.92834473 C-0.35755866 75.34798173 -0.30171365 66.76773251 -0.25 58.1875 C-0.12625 29.3846875 -0.12625 29.3846875 0 0 Z M141.5793457 22.57617188 C139.74268867 24.35108301 137.89276214 26.11237023 136.02954102 27.859375 C133.34617593 30.37838427 130.71147087 32.94051724 128.08203125 35.515625 C127.24364212 36.28489319 126.40525299 37.05416138 125.54145813 37.84674072 C121.14942324 42.21215991 121.14942324 42.21215991 119.91290283 48.07427979 C120.40956564 51.14589119 121.12354822 54.01692678 122 57 C122.37123945 58.7730738 122.73049645 60.5487615 123.0703125 62.328125 C123.41922695 63.9693152 123.7707499 65.60995322 124.125 67.25 C124.30675781 68.10207031 124.48851562 68.95414063 124.67578125 69.83203125 C125.11480908 71.88853002 125.55704475 73.94434359 126 76 C127.44289167 73.27810367 128.48218198 70.67060577 129.31274414 67.70629883 C129.54961441 66.86895706 129.78648468 66.0316153 130.03053284 65.16889954 C130.27955856 64.273983 130.52858429 63.37906647 130.78515625 62.45703125 C131.04630722 61.53282883 131.30745819 60.6086264 131.57652283 59.65641785 C132.4089841 56.7095009 133.23625836 53.76116636 134.0625 50.8125 C134.89256321 47.85319634 135.72380864 44.89425452 136.55918884 41.93644714 C137.07877782 40.09661368 137.59526271 38.25590034 138.1084137 36.41426086 C138.45899086 35.17243294 138.45899086 35.17243294 138.81665039 33.90551758 C139.02157608 33.17367752 139.22650177 32.44183746 139.43763733 31.68782043 C140 30 140 30 141 29 C147.23076923 28.53846154 147.23076923 28.53846154 149.875 30.125 C151.98110047 33.63516744 152.13704168 37.0949804 151.53302002 41.08392334 C151.25560974 42.17739075 150.97819946 43.27085815 150.69238281 44.39746094 C150.38165833 45.64605896 150.07093384 46.89465698 149.75079346 48.18109131 C149.40188155 49.5322662 149.05265066 50.88335875 148.703125 52.234375 C148.34919466 53.6364961 147.99624457 55.03886497 147.64422607 56.44146729 C146.71554755 60.12940854 145.77240961 63.81350725 144.82653809 67.49707031 C144.06279125 70.48155296 143.30942409 73.46860697 142.55662918 76.45586777 C141.65073664 80.04961959 140.74005069 83.64214995 139.828125 87.234375 C139.65743752 87.90730339 139.48675003 88.58023178 139.3108902 89.27355194 C133.71357225 111.28642775 133.71357225 111.28642775 132 113 C123.57954545 113.48579545 123.57954545 113.48579545 120 111 C117.38799787 105.15920027 116.14036812 98.70616451 114.80859375 92.4765625 C114.41737578 90.69660182 114.02609804 88.91665427 113.63476562 87.13671875 C113.03168993 84.36548348 112.43075259 81.59379831 111.83129883 78.82177734 C111.24569876 76.12218239 110.65249336 73.42434167 110.05859375 70.7265625 C109.79289833 69.47971176 109.79289833 69.47971176 109.52183533 68.20767212 C108.73408984 64.63984704 108.04751547 62.07127321 106 59 C104.49403892 60.45217676 102.99537896 61.91192861 101.5 63.375 C100.24703125 64.59316406 100.24703125 64.59316406 98.96875 65.8359375 C96.77568714 67.7589659 96.77568714 67.7589659 97 70 C98.06801128 70.91878231 99.18067163 71.78608787 100.3125 72.625 C104.20695598 75.86379706 106.07763979 79.01132056 107 84 C106.8125 87.4375 106.8125 87.4375 106 90 C102.48197895 91.75901053 98.81730474 91.82030068 95 91 C93.1628515 89.36372423 91.8549911 87.6204103 90.40234375 85.640625 C88.97423603 83.70424435 88.97423603 83.70424435 85.875 82.8125 C82.91769723 82.76006069 82.91769723 82.76006069 80.625 84.625 C78.68508435 87.46026133 78.63400331 88.62978048 79 92 C81.96425813 96.91752755 86.56650345 100.5378786 91.0625 104 C96.35856801 108.09315012 100.85025398 112.55076194 103 119 C104.21641739 135.81048946 104.21641739 135.81048946 99 142 C91.5098062 147.96158282 83.16579383 147.85453471 74 147 C66.43256597 145.22623202 60.34393644 141.51590466 56 135 C55.76953125 132.15234375 55.76953125 132.15234375 55.8125 128.9375 C55.81894531 127.87402344 55.82539063 126.81054688 55.83203125 125.71484375 C56 123 56 123 57 121 C60.30448122 120.40688799 62.34915862 120.56138951 65.15625 122.453125 C66.69732209 123.70920431 68.23368059 124.97108563 69.765625 126.23828125 C73.74275021 129.37409151 77.11968769 131.07095518 82.3125 130.875 C85.31010603 130.20590682 85.31010603 130.20590682 87 127 C86.79150969 122.04331099 85.29654762 119.61744405 81.9375 116.0625 C80.72320312 114.77666016 80.72320312 114.77666016 79.484375 113.46484375 C76.69842933 110.70080017 73.83703107 108.08414752 70.82421875 105.5703125 C68.78826179 103.81773285 66.89955997 101.89955997 65 100 C49.49 115.51 33.98 131.02 18 147 C31.31309392 164.75079189 48.03152356 174.57613453 69.875 178.375 C91.29561057 180.88654848 113.13538698 175.53436235 130.23535156 162.17285156 C146.06634202 149.03850391 156.91022784 130.63434441 159 110 C159.13521303 106.58278573 159.12663263 103.16974712 159.11352539 99.75024414 C159.11374443 98.24178421 159.11374443 98.24178421 159.1139679 96.70285034 C159.11327427 93.39692995 159.10550766 90.09106673 159.09765625 86.78515625 C159.09579012 84.48587576 159.09436714 82.18659487 159.09336853 79.88731384 C159.08955873 73.84901829 159.07974159 67.81074695 159.06866455 61.77246094 C159.05841735 55.60547208 159.05386383 49.4384793 159.04882812 43.27148438 C159.03811792 31.18097897 159.02106 19.0904915 159 7 C154.15213538 7 144.98866677 19.25810379 141.5793457 22.57617188 Z M37.0625 37.375 C36.01642578 37.50132812 34.97035156 37.62765625 33.89257812 37.7578125 C28.12379133 38.48298997 22.60447677 39.44882111 17 41 C17.57344937 43.86724686 17.8614515 44.8614515 20 47 C22.8595077 47.42645229 22.8595077 47.42645229 26.0625 47.5625 C31.90277778 47.90277778 31.90277778 47.90277778 33 49 C33.12357078 50.93223995 33.17794458 52.86893799 33.20532227 54.80493164 C33.22526749 56.04614273 33.24521271 57.28735382 33.26576233 58.56617737 C33.28274793 59.9308357 33.29962669 61.29549537 33.31640625 62.66015625 C33.33696936 64.04878875 33.35796566 65.4374149 33.37937927 66.82603455 C33.43466647 70.48714059 33.48404626 74.14830373 33.53222656 77.80950928 C33.58239321 81.54297997 33.63810446 85.27636738 33.69335938 89.00976562 C33.80102218 96.3397733 33.90244894 103.66985005 34 111 C37.465 111.495 37.465 111.495 41 112 C41.01839432 111.21517242 41.03678864 110.43034485 41.05574036 109.62173462 C41.23147954 102.23440642 41.42124185 94.8476363 41.62686634 87.46108437 C41.73208917 83.6633297 41.83183559 79.86559385 41.91918945 76.06738281 C42.00365196 72.40356955 42.10233884 68.74039346 42.21100426 65.07722092 C42.24999157 63.67788316 42.2838047 62.27839157 42.31241798 60.87880325 C42.35329136 58.9222888 42.41407988 56.96622076 42.47583008 55.01025391 C42.50469803 53.8955069 42.53356598 52.78075989 42.56330872 51.63223267 C42.70741684 50.76359589 42.85152496 49.89495911 43 49 C46.69880785 46.5341281 49.28702757 46.60196264 53.625 46.34375 C56.26194296 46.13577769 56.26194296 46.13577769 59 44 C60.08568503 42.15732132 60.08568503 42.15732132 60 40 C58.58709872 37.58526981 58.58709872 37.58526981 56 36 C49.64272128 35.573337 43.36122174 36.57074333 37.0625 37.375 Z M107 41 C107.66 43.97 108.32 46.94 109 50 C110.98 48.35 112.96 46.7 115 45 C114.34 43.02 113.68 41.04 113 39 C109.81509993 38.7226499 109.81509993 38.7226499 107 41 Z M71.75 76.3125 C67.77990638 81.25952765 66.69905753 85.68020822 67 92 C72.06623768 87.76183463 76.80038069 83.32591037 81.4375 78.625 C82.39172852 77.66400391 82.39172852 77.66400391 83.36523438 76.68359375 C84.91250332 75.12469121 86.45736492 73.56348584 88 72 C87.67 71.34 87.34 70.68 87 70 C80.33409116 69.52386365 76.20297947 71.42719243 71.75 76.3125 Z " fill="#DE0A15" transform="translate(111,170)"/>
<path d="M0 0 C53.46 0 106.92 0 162 0 C162.0825 18.665625 162.165 37.33125 162.25 56.5625 C162.28641602 62.42974854 162.32283203 68.29699707 162.36035156 74.34204102 C162.37841797 81.57409668 162.37841797 81.57409668 162.3817749 84.97276306 C162.38786839 87.31796821 162.40183399 89.66316178 162.42230225 92.00828552 C162.55906904 108.5210867 162.18170327 123.32864771 154.3125 138.25 C153.97001221 138.91273926 153.62752441 139.57547852 153.2746582 140.25830078 C144.82610342 156.03173919 131.64793596 166.93270287 116 175 C115.23171875 175.42152344 114.4634375 175.84304688 113.671875 176.27734375 C97.21966306 184.59764177 73.48926574 184.64881311 56.22265625 179.19921875 C43.02453636 174.28791838 32.08106382 167.88719721 22 158 C21.236875 157.27296875 20.47375 156.5459375 19.6875 155.796875 C14.89592155 150.90547199 11.41892281 145.67751982 8.1875 139.6875 C7.82648193 139.02492188 7.46546387 138.36234375 7.09350586 137.6796875 C5.96575757 135.48656696 4.98055115 133.26293525 4 131 C3.649944 130.22633087 3.299888 129.45266174 2.93922424 128.6555481 C-1.63695905 116.57210935 -0.49821352 103.63067179 -0.390625 90.91796875 C-0.38473418 88.58809797 -0.38065944 86.25822188 -0.37841797 83.92834473 C-0.35755866 75.34798173 -0.30171365 66.76773251 -0.25 58.1875 C-0.12625 29.3846875 -0.12625 29.3846875 0 0 Z M2 3 C1.938125 20.345625 1.87625 37.69125 1.8125 55.5625 C1.78518799 61.01209229 1.75787598 66.46168457 1.72973633 72.07641602 C1.7196947 77.01921562 1.7196947 77.01921562 1.71366882 81.96202087 C1.70910278 84.14054714 1.69863743 86.31906647 1.68327332 88.49754333 C1.42732916 117.49455725 1.42732916 117.49455725 14 143 C18.82616322 143 19.29387498 142.23971895 22.66088867 138.99951172 C23.57831345 138.12374481 24.49573822 137.24797791 25.44096375 136.34567261 C26.43447793 135.37488289 27.42678331 134.40285476 28.41796875 133.4296875 C29.17184089 132.69465185 29.17184089 132.69465185 29.94094276 131.944767 C32.60525339 129.34630295 35.2574081 126.73611707 37.90014648 124.11572266 C40.61569267 121.42756336 43.36831091 118.78115486 46.1321516 116.1428051 C48.26393924 114.09364425 50.36558211 112.01542644 52.46050453 109.92865372 C53.46196539 108.94102784 54.474173 107.96416465 55.49751854 106.99923325 C61.22632976 101.57540527 64.49707158 97.6867951 64.98950195 89.63720703 C64.95503716 87.94073532 64.95503716 87.94073532 64.9198761 86.20999146 C65.04762419 81.0920393 67.0024899 77.0846071 70 73 C72.70150185 70.4609945 75.47555292 69.17481569 79 68 C80.43472656 68.17789063 80.43472656 68.17789063 81.8984375 68.359375 C87.5703207 68.99666525 92.06457904 68.97088701 96.84765625 65.671875 C101.04595268 62.21494774 105.33589597 58.37484204 106.42382812 52.84619141 C106.57546436 49.20934152 106.13878062 45.80830608 105.48046875 42.23828125 C105.32191406 41.16964844 105.16335937 40.10101563 105 39 C107 37 107 37 110.5 36.8125 C114 37 114 37 116 38 C117.125 40.0625 117.125 40.0625 118 42 C123.13812825 37.69849478 127.9538552 33.19337975 132.68359375 28.44921875 C133.38396255 27.74980667 134.08433136 27.05039459 134.80592346 26.32978821 C136.27182762 24.86455991 137.73648839 23.39808666 139.19995117 21.93041992 C141.45182244 19.67314318 143.7090454 17.42131555 145.96679688 15.16992188 C147.39355035 13.74250846 148.81999406 12.31478535 150.24609375 10.88671875 C151.26309608 9.87275276 151.26309608 9.87275276 152.30064392 8.83830261 C152.91871414 8.21708023 153.53678436 7.59585785 154.17358398 6.95581055 C154.99462868 6.13357246 154.99462868 6.13357246 155.83226013 5.29472351 C157.11162549 4.1668257 157.11162549 4.1668257 157 3 C105.85 3 54.7 3 2 3 Z M141.5793457 22.57617188 C139.74268867 24.35108301 137.89276214 26.11237023 136.02954102 27.859375 C133.34617593 30.37838427 130.71147087 32.94051724 128.08203125 35.515625 C127.24364212 36.28489319 126.40525299 37.05416138 125.54145813 37.84674072 C121.14942324 42.21215991 121.14942324 42.21215991 119.91290283 48.07427979 C120.40956564 51.14589119 121.12354822 54.01692678 122 57 C122.37123945 58.7730738 122.73049645 60.5487615 123.0703125 62.328125 C123.41922695 63.9693152 123.7707499 65.60995322 124.125 67.25 C124.30675781 68.10207031 124.48851562 68.95414063 124.67578125 69.83203125 C125.11480908 71.88853002 125.55704475 73.94434359 126 76 C127.44289167 73.27810367 128.48218198 70.67060577 129.31274414 67.70629883 C129.54961441 66.86895706 129.78648468 66.0316153 130.03053284 65.16889954 C130.27955856 64.273983 130.52858429 63.37906647 130.78515625 62.45703125 C131.04630722 61.53282883 131.30745819 60.6086264 131.57652283 59.65641785 C132.4089841 56.7095009 133.23625836 53.76116636 134.0625 50.8125 C134.89256321 47.85319634 135.72380864 44.89425452 136.55918884 41.93644714 C137.07877782 40.09661368 137.59526271 38.25590034 138.1084137 36.41426086 C138.45899086 35.17243294 138.45899086 35.17243294 138.81665039 33.90551758 C139.02157608 33.17367752 139.22650177 32.44183746 139.43763733 31.68782043 C140 30 140 30 141 29 C147.23076923 28.53846154 147.23076923 28.53846154 149.875 30.125 C151.98110047 33.63516744 152.13704168 37.0949804 151.53302002 41.08392334 C151.25560974 42.17739075 150.97819946 43.27085815 150.69238281 44.39746094 C150.38165833 45.64605896 150.07093384 46.89465698 149.75079346 48.18109131 C149.40188155 49.5322662 149.05265066 50.88335875 148.703125 52.234375 C148.34919466 53.6364961 147.99624457 55.03886497 147.64422607 56.44146729 C146.71554755 60.12940854 145.77240961 63.81350725 144.82653809 67.49707031 C144.06279125 70.48155296 143.30942409 73.46860697 142.55662918 76.45586777 C141.65073664 80.04961959 140.74005069 83.64214995 139.828125 87.234375 C139.65743752 87.90730339 139.48675003 88.58023178 139.3108902 89.27355194 C133.71357225 111.28642775 133.71357225 111.28642775 132 113 C123.57954545 113.48579545 123.57954545 113.48579545 120 111 C117.38799787 105.15920027 116.14036812 98.70616451 114.80859375 92.4765625 C114.41737578 90.69660182 114.02609804 88.91665427 113.63476562 87.13671875 C113.03168993 84.36548348 112.43075259 81.59379831 111.83129883 78.82177734 C111.24569876 76.12218239 110.65249336 73.42434167 110.05859375 70.7265625 C109.79289833 69.47971176 109.79289833 69.47971176 109.52183533 68.20767212 C108.73408984 64.63984704 108.04751547 62.07127321 106 59 C104.49403892 60.45217676 102.99537896 61.91192861 101.5 63.375 C100.24703125 64.59316406 100.24703125 64.59316406 98.96875 65.8359375 C96.77568714 67.7589659 96.77568714 67.7589659 97 70 C98.06801128 70.91878231 99.18067163 71.78608787 100.3125 72.625 C104.20695598 75.86379706 106.07763979 79.01132056 107 84 C106.8125 87.4375 106.8125 87.4375 106 90 C102.48197895 91.75901053 98.81730474 91.82030068 95 91 C93.1628515 89.36372423 91.8549911 87.6204103 90.40234375 85.640625 C88.97423603 83.70424435 88.97423603 83.70424435 85.875 82.8125 C82.91769723 82.76006069 82.91769723 82.76006069 80.625 84.625 C78.68508435 87.46026133 78.63400331 88.62978048 79 92 C81.96425813 96.91752755 86.56650345 100.5378786 91.0625 104 C96.35856801 108.09315012 100.85025398 112.55076194 103 119 C104.21641739 135.81048946 104.21641739 135.81048946 99 142 C91.5098062 147.96158282 83.16579383 147.85453471 74 147 C66.43256597 145.22623202 60.34393644 141.51590466 56 135 C55.76953125 132.15234375 55.76953125 132.15234375 55.8125 128.9375 C55.81894531 127.87402344 55.82539063 126.81054688 55.83203125 125.71484375 C56 123 56 123 57 121 C60.30448122 120.40688799 62.34915862 120.56138951 65.15625 122.453125 C66.69732209 123.70920431 68.23368059 124.97108563 69.765625 126.23828125 C73.74275021 129.37409151 77.11968769 131.07095518 82.3125 130.875 C85.31010603 130.20590682 85.31010603 130.20590682 87 127 C86.79150969 122.04331099 85.29654762 119.61744405 81.9375 116.0625 C80.72320312 114.77666016 80.72320312 114.77666016 79.484375 113.46484375 C76.69842933 110.70080017 73.83703107 108.08414752 70.82421875 105.5703125 C68.78826179 103.81773285 66.89955997 101.89955997 65 100 C49.49 115.51 33.98 131.02 18 147 C31.31309392 164.75079189 48.03152356 174.57613453 69.875 178.375 C91.29561057 180.88654848 113.13538698 175.53436235 130.23535156 162.17285156 C146.06634202 149.03850391 156.91022784 130.63434441 159 110 C159.13521303 106.58278573 159.12663263 103.16974712 159.11352539 99.75024414 C159.11374443 98.24178421 159.11374443 98.24178421 159.1139679 96.70285034 C159.11327427 93.39692995 159.10550766 90.09106673 159.09765625 86.78515625 C159.09579012 84.48587576 159.09436714 82.18659487 159.09336853 79.88731384 C159.08955873 73.84901829 159.07974159 67.81074695 159.06866455 61.77246094 C159.05841735 55.60547208 159.05386383 49.4384793 159.04882812 43.27148438 C159.03811792 31.18097897 159.02106 19.0904915 159 7 C154.15213538 7 144.98866677 19.25810379 141.5793457 22.57617188 Z M107 41 C107.66 43.97 108.32 46.94 109 50 C110.98 48.35 112.96 46.7 115 45 C114.34 43.02 113.68 41.04 113 39 C109.81509993 38.7226499 109.81509993 38.7226499 107 41 Z M71.75 76.3125 C67.77990638 81.25952765 66.69905753 85.68020822 67 92 C72.06623768 87.76183463 76.80038069 83.32591037 81.4375 78.625 C82.39172852 77.66400391 82.39172852 77.66400391 83.36523438 76.68359375 C84.91250332 75.12469121 86.45736492 73.56348584 88 72 C87.67 71.34 87.34 70.68 87 70 C80.33409116 69.52386365 76.20297947 71.42719243 71.75 76.3125 Z " fill="#010101" transform="translate(111,170)"/>
<path d="M0 0 C47.85 0 95.7 0 145 0 C144.67 5.61 144.34 11.22 144 17 C96.48 17 48.96 17 0 17 C0 11.39 0 5.78 0 0 Z " fill="#C0C0C0" transform="translate(92,99)"/>
<path d="M0 0 C17.75822257 -0.14098801 35.47656313 0.26078644 53.22302246 0.86883545 C55.93250242 0.96062 58.64211252 1.04816384 61.35173321 1.13567924 C73.95115657 1.54351937 86.54449765 1.98986427 99.13282776 2.66221619 C108.43925488 3.14897131 117.75336382 3.34791379 127.06958008 3.55224609 C129.36291478 3.60358062 131.65604411 3.660762 133.94921875 3.71875 C134.9957386 3.73911316 134.9957386 3.73911316 136.06340027 3.7598877 C140.88664952 3.88664952 140.88664952 3.88664952 142 5 C142 8.96 142 12.92 142 17 C95.14 17 48.28 17 0 17 C0 11.39 0 5.78 0 0 Z " fill="#C4C4C4" transform="translate(171,66)"/>
<path d="M0 0 C1.00562485 0.06153763 2.01124969 0.12307526 3.04734802 0.18647766 C10.7758228 0.65336723 18.50424198 1.08334968 26.23852539 1.44213867 C34.05094363 1.80598296 41.85823252 2.23399693 49.66500187 2.70366955 C54.35018365 2.98327737 59.03400639 3.23699603 63.72338867 3.43530273 C68.31236587 3.63039072 72.89334246 3.89129698 77.47619438 4.19756508 C79.20716307 4.30182992 80.93970841 4.38283701 82.67289925 4.43916893 C95.80396986 4.88717269 95.80396986 4.88717269 99.53623581 8.47803116 C102.1609995 11.93492701 106 17.51920595 106 22 C95.10011229 22.30125252 84.31794657 21.37304221 73.46484375 20.50390625 C71.49380305 20.34906011 69.52273835 20.19451919 67.551651 20.04026794 C63.44573077 19.71790732 59.34008686 19.39228105 55.23461914 19.06420898 C49.96923909 18.64365801 44.70329161 18.23076423 39.43712521 17.82019138 C35.37837945 17.50302291 31.31993175 17.18216857 27.26156807 16.86015129 C25.31874566 16.70638317 23.37583752 16.55369428 21.43284416 16.40210152 C18.7282753 16.19047351 16.02414118 15.97396599 13.32006836 15.75610352 C12.11620232 15.66331367 12.11620232 15.66331367 10.88801575 15.56864929 C7.74719699 15.31131086 5.00255416 15.00085139 2 14 C1.93941406 13.15695313 1.87882813 12.31390625 1.81640625 11.4453125 C1.73261719 10.34960938 1.64882812 9.25390625 1.5625 8.125 C1.48128906 7.03445312 1.40007812 5.94390625 1.31640625 4.8203125 C1.16998297 2.05271029 1.16998297 2.05271029 0 0 Z " fill="#C3C3C3" transform="translate(166,23)"/>
<path d="M0 0 C2.8992226 0.46761655 3.86675182 0.86675182 6 3 C6.51706225 11.560134 3.31456344 20.41965544 1.18359375 28.6328125 C0.803244 30.12051453 0.42353991 31.60838177 0.04444885 33.09640503 C-0.9470272 36.98103682 -1.94716304 40.86338617 -2.94921875 44.74530029 C-3.97341538 48.71946454 -4.98926841 52.6957598 -6.00585938 56.671875 C-7.99582065 64.45000699 -9.99495034 72.22574389 -12 80 C-18.42574988 79.39379718 -18.42574988 79.39379718 -20.85310364 77.72921753 C-22.25667543 75.61300108 -22.78744269 73.81065714 -23.3503418 71.33251953 C-23.57034348 70.38788849 -23.79034515 69.44325745 -24.01701355 68.47000122 C-24.24214127 67.45122894 -24.46726898 66.43245667 -24.69921875 65.3828125 C-24.9391304 64.33350555 -25.17904205 63.28419861 -25.42622375 62.20309448 C-25.93136146 59.98341661 -26.43116102 57.76251817 -26.92602539 55.54052734 C-27.68358987 52.14253853 -28.45851883 48.74887417 -29.23632812 45.35546875 C-29.72499091 43.1981503 -30.21265441 41.0406052 -30.69921875 38.8828125 C-30.93041916 37.86808868 -31.16161957 36.85336487 -31.39982605 35.80789185 C-31.61037125 34.85695648 -31.82091644 33.90602112 -32.0378418 32.92626953 C-32.224207 32.09370636 -32.4105722 31.26114319 -32.60258484 30.40335083 C-33.02229498 27.86517209 -33.17360279 25.56737676 -33 23 C-31.46875 21.19921875 -31.46875 21.19921875 -29.5 19.6875 C-28.8503125 19.17574219 -28.200625 18.66398437 -27.53125 18.13671875 C-27.0259375 17.76160156 -26.520625 17.38648438 -26 17 C-23.67123599 25.86912251 -21.56375172 34.76024329 -19.75 43.75 C-19.57500977 44.6069043 -19.40001953 45.46380859 -19.21972656 46.34667969 C-19.05956055 47.15524414 -18.89939453 47.96380859 -18.734375 48.796875 C-18.59225586 49.51198242 -18.45013672 50.22708984 -18.30371094 50.96386719 C-18 53 -18 53 -18 57 C-17.01 57 -16.02 57 -15 57 C-14.97131836 56.44127197 -14.94263672 55.88254395 -14.91308594 55.30688477 C-14.34263988 47.55676726 -12.3872271 40.38684527 -10.25 32.9375 C-9.88669218 31.65088436 -9.5239848 30.36409902 -9.16186523 29.07714844 C-8.11708542 25.38207531 -7.06030403 21.69064383 -6 18 C-5.71979004 17.01596191 -5.43958008 16.03192383 -5.15087891 15.01806641 C-4.46019497 12.59376132 -3.76387058 10.1712322 -3.0625 7.75 C-2.86366211 7.060271 -2.66482422 6.37054199 -2.45996094 5.65991211 C-1.12025281 1.12025281 -1.12025281 1.12025281 0 0 Z " fill="#D61219" transform="translate(254,201)"/>
<path d="M0 0 C4.62 0 9.24 0 14 0 C14 24.09 14 48.18 14 73 C3.18363671 68.67345468 3.18363671 68.67345468 0 65 C-1.26410459 60.08541929 -1.05040228 55.2284287 -0.87890625 50.1953125 C-0.86210351 48.74661219 -0.84930018 47.29786047 -0.84031677 45.84909058 C-0.80607864 42.05009809 -0.71779842 38.25424165 -0.61798096 34.45648193 C-0.52562948 30.57558623 -0.48474941 26.69417962 -0.43945312 22.8125 C-0.34315278 15.2067432 -0.18496732 7.60421187 0 0 Z " fill="#C3C2C2" transform="translate(55,35)"/>
<path d="M0 0 C0.268125 0.94875 0.53625 1.8975 0.8125 2.875 C3.67389003 9.62459466 10.53103461 14.25399998 16.13671875 18.69140625 C21.33431495 22.82918891 24.42854277 26.96445153 25.37890625 33.67578125 C25.6414803 39.79968568 24.95728236 45.13655733 21 50 C18.72515297 51.74286721 16.63344192 52.78081392 14 54 C13.01 54.495 13.01 54.495 12 55 C2.77096952 55.89077668 -4.85043012 54.79088858 -12.3984375 49.234375 C-17.67100372 44.53531599 -17.67100372 44.53531599 -18.4921875 40.703125 C-18.5 38.5 -18.5 38.5 -18 35 C-16.2734375 34.29296875 -16.2734375 34.29296875 -14 34 C-11.8515625 35.36328125 -11.8515625 35.36328125 -9.625 37.3125 C-3.61634148 42.23313063 1.30189272 43.74497812 9 43 C11.66666667 41.66666667 11.66666667 41.66666667 13 39 C13.59247014 34.40835644 13.56472435 32.12944871 11.5 28 C8.23133552 24.07760262 4.67298017 20.54101681 1 17 C-2 14 -5 11 -8 8 C-6.48291727 4.46014029 -4.24676932 0 0 0 Z " fill="#D81119" transform="translate(187,260)"/>
<path d="M0 0 C-0.14019692 2.81288705 -0.28687955 5.62516885 -0.4375 8.4375 C-0.47681641 9.23994141 -0.51613281 10.04238281 -0.55664062 10.86914062 C-0.88671875 16.88671875 -0.88671875 16.88671875 -2 18 C-3.48297006 18.26849125 -4.97654966 18.47879756 -6.47216797 18.66430664 C-7.42340546 18.78435562 -8.37464294 18.9044046 -9.35470581 19.02809143 C-10.39007477 19.15417282 -11.42544373 19.28025421 -12.4921875 19.41015625 C-13.54906769 19.54191757 -14.60594788 19.67367889 -15.69485474 19.80943298 C-17.93580471 20.08795262 -20.17701492 20.36438503 -22.41845703 20.63891602 C-25.85379151 21.05990099 -29.28826701 21.48739478 -32.72265625 21.91601562 C-34.89578567 22.18528081 -37.06896129 22.45417336 -39.2421875 22.72265625 C-40.273508 22.85076187 -41.30482849 22.97886749 -42.36740112 23.1108551 C-43.80371384 23.28620033 -43.80371384 23.28620033 -45.26904297 23.46508789 C-46.11207977 23.56866104 -46.95511658 23.67223419 -47.82369995 23.77894592 C-50 24 -50 24 -53 24 C-53 18.72 -53 13.44 -53 8 C-24.62181816 3.05871989 -24.62181816 3.05871989 -13 1.1875 C-12.24936279 1.0639917 -11.49872559 0.9404834 -10.7253418 0.81323242 C-7.11609126 0.24140765 -3.65572956 -0.13566184 0 0 Z " fill="#C1C1C1" transform="translate(145,65)"/>
<path d="M0 0 C1 1 1 1 1.375 4.25 C1 8 1 8 -0.6875 10.875 C-4.41489697 13.26616032 -6.35206187 13.37870504 -10.70703125 13.6328125 C-11.88370361 13.7064502 -13.06037598 13.78008789 -14.27270508 13.85595703 C-15.1727124 13.90349121 -16.07271973 13.95102539 -17 14 C-16.99777939 14.77007889 -16.99555878 15.54015778 -16.99327087 16.33357239 C-16.97324119 23.58769659 -16.95801217 30.8418074 -16.94818783 38.09595203 C-16.94296727 41.82545462 -16.9358846 45.55493438 -16.92456055 49.28442383 C-16.91370233 52.88297945 -16.90771692 56.4815131 -16.90512276 60.08008385 C-16.90327381 61.45361362 -16.89966334 62.82714218 -16.89426994 64.20066261 C-16.88702072 66.12310236 -16.88659161 68.04556417 -16.88647461 69.96801758 C-16.884254 71.06277908 -16.88203339 72.15754059 -16.87974548 73.28547668 C-17 76 -17 76 -18 79 C-22.51988545 80.36966226 -25.60543089 79.57541157 -30 78 C-32 76 -32 76 -32.24050903 73.44369507 C-32.2338472 71.82486923 -32.2338472 71.82486923 -32.22705078 70.17333984 C-32.22689972 68.95222504 -32.22674866 67.73111023 -32.22659302 66.47299194 C-32.21637903 65.13563882 -32.20594702 63.79828735 -32.1953125 62.4609375 C-32.1915828 61.09616299 -32.18873563 59.73138581 -32.18673706 58.36660767 C-32.17909714 54.77279277 -32.15944572 51.17913927 -32.1373291 47.58538818 C-32.11687832 43.91892683 -32.107737 40.25243943 -32.09765625 36.5859375 C-32.07620003 29.39055138 -32.04205992 22.1952983 -32 15 C-32.92449951 15.02175293 -32.92449951 15.02175293 -33.86767578 15.04394531 C-35.08173096 15.06086426 -35.08173096 15.06086426 -36.3203125 15.078125 C-37.52324951 15.09987793 -37.52324951 15.09987793 -38.75048828 15.12207031 C-42.85989794 14.89907218 -45.07007622 12.92992378 -47.875 10.125 C-49.33711438 7.3632284 -48.89369473 5.92481911 -48 3 C-41.46002495 0.54260965 -35.10782819 -0.8097411 -28.1875 -1.6875 C-27.22207275 -1.8127002 -26.25664551 -1.93790039 -25.26196289 -2.06689453 C-6.43579337 -4.39463187 -6.43579337 -4.39463187 0 0 Z M-24.9375 1.375 C-25.98357422 1.50132812 -27.02964844 1.62765625 -28.10742188 1.7578125 C-33.87620867 2.48298997 -39.39552323 3.44882111 -45 5 C-44.42655063 7.86724686 -44.1385485 8.8614515 -42 11 C-39.1404923 11.42645229 -39.1404923 11.42645229 -35.9375 11.5625 C-30.09722222 11.90277778 -30.09722222 11.90277778 -29 13 C-28.87642922 14.93223995 -28.82205542 16.86893799 -28.79467773 18.80493164 C-28.77473251 20.04614273 -28.75478729 21.28735382 -28.73423767 22.56617737 C-28.71725207 23.9308357 -28.70037331 25.29549537 -28.68359375 26.66015625 C-28.66303064 28.04878875 -28.64203434 29.4374149 -28.62062073 30.82603455 C-28.56533353 34.48714059 -28.51595374 38.14830373 -28.46777344 41.80950928 C-28.41760679 45.54297997 -28.36189554 49.27636738 -28.30664062 53.00976562 C-28.19897782 60.3397733 -28.09755106 67.66985005 -28 75 C-24.535 75.495 -24.535 75.495 -21 76 C-20.98160568 75.21517242 -20.96321136 74.43034485 -20.94425964 73.62173462 C-20.76852046 66.23440642 -20.57875815 58.8476363 -20.37313366 51.46108437 C-20.26791083 47.6633297 -20.16816441 43.86559385 -20.08081055 40.06738281 C-19.99634804 36.40356955 -19.89766116 32.74039346 -19.78899574 29.07722092 C-19.75000843 27.67788316 -19.7161953 26.27839157 -19.68758202 24.87880325 C-19.64670864 22.9222888 -19.58592012 20.96622076 -19.52416992 19.01025391 C-19.49530197 17.8955069 -19.46643402 16.78075989 -19.43669128 15.63223267 C-19.29258316 14.76359589 -19.14847504 13.89495911 -19 13 C-15.30119215 10.5341281 -12.71297243 10.60196264 -8.375 10.34375 C-5.73805704 10.13577769 -5.73805704 10.13577769 -3 8 C-1.91431497 6.15732132 -1.91431497 6.15732132 -2 4 C-3.41290128 1.58526981 -3.41290128 1.58526981 -6 0 C-12.35727872 -0.426663 -18.63877826 0.57074333 -24.9375 1.375 Z " fill="#201915" transform="translate(173,206)"/>
<path d="M0 0 C2.3294101 2.03203859 4.57936772 4.13330475 6.83203125 6.25 C12.01694332 10.91123774 17.78291722 14.91281807 23.39624023 19.03515625 C24.24774658 19.66292969 25.09925293 20.29070312 25.9765625 20.9375 C26.75080566 21.50339844 27.52504883 22.06929687 28.32275391 22.65234375 C28.87624512 23.09707031 29.42973633 23.54179687 30 24 C30 24.33 30 24.66 30 25 C20.52476688 26.52865477 13.63817516 26.19275665 5.66772461 20.44775391 C2.45163213 17.93996171 -0.72039021 15.38819175 -3.85058594 12.77392578 C-18.66595848 0.54669987 -34.44856974 -5.05067532 -52.64086914 -10.22558594 C-54.89961602 -10.96704771 -56.90752037 -11.87893159 -59 -13 C-37.63074307 -15.59583164 -17.68041436 -13.17994525 0 0 Z " fill="#C2C2C2" transform="translate(65,108)"/>
<path d="M0 0 C8.44061104 6.51467797 14.4018785 17.54115082 16.90625 27.76953125 C14.42103283 25.30630715 11.9647481 22.83245357 9.58203125 20.26953125 C2.1347589 12.39142496 -4.0099385 7.62434993 -15.09375 7.14453125 C-29.11329116 7.74947369 -40.21118318 17.87518916 -49.78125 27.39453125 C-53.08446489 30.45215395 -55.1444718 31.25689322 -59.65625 31.26953125 C-61.13939881 31.14311369 -62.6217595 30.99079078 -64.09375 30.76953125 C-51.82051744 11.39818493 -23.7827971 -13.97683038 0 0 Z " fill="#C1C1C1" transform="translate(360.09375,102.23046875)"/>
<path d="M0 0 C0 0.33 0 0.66 0 1 C-26.4 1 -52.8 1 -80 1 C-59.73031296 -19.26968704 -22.82997138 -9.56563047 0 0 Z " fill="#C1C0C0" transform="translate(185,132)"/>
<path d="M0 0 C0 1.98 0 3.96 0 6 C-0.93513428 6.09704224 -0.93513428 6.09704224 -1.88916016 6.19604492 C-18.3975271 7.96794906 -31.81454141 10.93419883 -46.57421875 18.86328125 C-49 20 -49 20 -52 20 C-52 15.05 -52 10.1 -52 5 C-35.33015517 -0.28752947 -17.28320008 -5.42218042 0 0 Z " fill="#C2C1C1" transform="translate(313,100)"/>
<path d="M0 0 C3.96 0 7.92 0 12 0 C12.82147238 4.99989592 13.1358223 9.83177018 13.09765625 14.90234375 C13.0962413 15.6249086 13.09482635 16.34747345 13.09336853 17.0919342 C13.08782225 19.37383365 13.0752802 21.65563079 13.0625 23.9375 C13.05747804 25.49544128 13.05291636 27.05338412 13.04882812 28.61132812 C13.03872623 32.40762211 13.01914102 36.20369809 13 40 C8.38 40 3.76 40 -1 40 C-1.02318564 36.07132181 -1.0430279 32.14282205 -1.05493164 28.21411133 C-1.0623244 26.23452108 -1.07504274 24.25495299 -1.08789062 22.27539062 C-1.10687823 14.77528771 -0.81288628 7.4567915 0 0 Z " fill="#C3C3C3" transform="translate(147,57)"/>
<path d="M0 0 C3.63 0 7.26 0 11 0 C11 12.54 11 25.08 11 38 C7.04 38 3.08 38 -1 38 C-1.02483101 33.55257542 -1.04292183 29.10518822 -1.05493164 24.65771484 C-1.05994162 23.14663998 -1.06675144 21.63556991 -1.07543945 20.12451172 C-1.08765176 17.94497488 -1.09326178 15.76550247 -1.09765625 13.5859375 C-1.10289307 12.2767334 -1.10812988 10.9675293 -1.11352539 9.61865234 C-1.00972117 6.30986487 -0.63432368 3.24404982 0 0 Z " fill="#C3C3C3" transform="translate(239,95)"/>
<path d="M0 0 C3.3 0 6.6 0 10 0 C10.22329384 5.71059676 10.38615713 11.41863023 10.49438477 17.13256836 C10.53951404 19.07377398 10.6008378 21.01467585 10.67895508 22.95483398 C11.31339451 39.12267291 11.31339451 39.12267291 7.99169922 43.87060547 C2.74074074 48 2.74074074 48 0 48 C0 32.16 0 16.32 0 0 Z " fill="#C1C1C1" transform="translate(315,62)"/>
<path d="M0 0 C3.3103125 1.6396875 3.3103125 1.6396875 6.6875 3.3125 C7.37287842 3.65063721 8.05825684 3.98877441 8.7644043 4.3371582 C10.51722185 5.20963006 12.25843873 6.1052705 14 7 C14.969375 7.4434375 15.93875 7.886875 16.9375 8.34375 C19 10 19 10 19.48828125 12.91796875 C19.43027344 13.99691406 19.37226562 15.07585938 19.3125 16.1875 C19.24482422 17.81751953 19.24482422 17.81751953 19.17578125 19.48046875 C19.11777344 20.31191406 19.05976562 21.14335938 19 22 C16.58424393 22.50478485 14.16755639 23.00397642 11.75 23.5 C11.06808594 23.64308594 10.38617188 23.78617188 9.68359375 23.93359375 C6.35366879 24.61251049 3.41667449 25 0 25 C0 16.75 0 8.5 0 0 Z " fill="#C0C0C0" transform="translate(99,45)"/>
<path d="M0 0 C1.32 0 2.64 0 4 0 C10.69230769 0.69230769 10.69230769 0.69230769 13 3 C13.265625 5.2421875 13.265625 5.2421875 13.25 7.875 C13.25515625 8.73867188 13.2603125 9.60234375 13.265625 10.4921875 C13 13 13 13 11 17 C4.4 16.34 -2.2 15.68 -9 15 C-8.38257132 3.51582649 -8.38257132 3.51582649 -6.609375 1.125 C-4.34019609 -0.46122215 -2.71949573 -0.19898749 0 0 Z " fill="#0C0C0C" transform="translate(286,283)"/>
<path d="M0 0 C2.97 0 5.94 0 9 0 C9 9.24 9 18.48 9 28 C8.34 28 7.68 28 7 28 C7 30.64 7 33.28 7 36 C3.535 36.495 3.535 36.495 0 37 C0 24.79 0 12.58 0 0 Z " fill="#C3C3C3" transform="translate(138,27)"/>
<path d="M0 0 C1.97265625 0.4609375 1.97265625 0.4609375 3.69921875 2.11328125 C6.1256734 6.58659181 5.56504956 11.52657049 4.97265625 16.4609375 C3.41015625 19.7109375 3.41015625 19.7109375 0.97265625 21.4609375 C-2.58984375 22.0234375 -2.58984375 22.0234375 -6.02734375 21.4609375 C-8.96216818 19.21090543 -9.31404607 16.58928611 -9.83984375 13.0859375 C-10.16804048 9.10162923 -9.7320685 6.13955406 -8.02734375 2.4609375 C-5.44743574 -0.11897051 -3.52489914 0.14494912 0 0 Z " fill="#080808" transform="translate(212.02734375,144.5390625)"/>
<path d="M0 0 C4.65258988 1.79259155 9.25031898 3.63349806 13 7 C13.5 10.3125 13.5 10.3125 13 13 C12.360625 13.185625 11.72125 13.37125 11.0625 13.5625 C8.61268392 14.91766661 8.61268392 14.91766661 8.3125 18.375 C8.209375 19.57125 8.10625 20.7675 8 22 C7.69096017 23.33917261 7.37057089 24.67653254 7 26 C5.68 25.67 4.36 25.34 3 25 C3.495 20.545 3.495 20.545 4 16 C2.02 15.01 0.04 14.02 -2 13 C-2.66 14.98 -3.32 16.96 -4 19 C-5.32 19 -6.64 19 -8 19 C-7.38188466 14.44684052 -5.53234107 10.71540233 -3.4375 6.6875 C-2.9434668 5.71973633 -2.9434668 5.71973633 -2.43945312 4.73242188 C-1.63175745 3.15214772 -0.81662387 1.57567895 0 0 Z " fill="#0A0A0A" transform="translate(145,348)"/>
<path d="M0 0 C3.01895724 4.23057887 4.87071622 8.77570266 4 14 C0.5647952 16.29013653 -0.985331 16.17842973 -5 16 C-5.37125 16.9590625 -5.37125 16.9590625 -5.75 17.9375 C-7 20 -7 20 -9.0625 20.625 C-9.701875 20.74875 -10.34125 20.8725 -11 21 C-11.33 21.66 -11.66 22.32 -12 23 C-12.66 21.68 -13.32 20.36 -14 19 C-10.25 16 -10.25 16 -8 16 C-8.66 13.69 -9.32 11.38 -10 9 C-12.76276177 9.52268466 -15.3260876 10.10869587 -18 11 C-18.33 9.68 -18.66 8.36 -19 7 C-16.40163864 5.63354299 -13.79734444 4.28169331 -11.1875 2.9375 C-10.44951172 2.54755859 -9.71152344 2.15761719 -8.95117188 1.75585938 C-8.23896484 1.39169922 -7.52675781 1.02753906 -6.79296875 0.65234375 C-6.1383667 0.31195068 -5.48376465 -0.02844238 -4.80932617 -0.37915039 C-3 -1 -3 -1 0 0 Z " fill="#070707" transform="translate(111,307)"/>
<path d="M0 0 C1.94140625 0.44140625 1.94140625 0.44140625 4.44140625 2.44140625 C6.3217315 6.20205675 6.62102313 9.3557095 5.94140625 13.44140625 C4.59199973 16.75358588 3.46212895 18.92068355 0.94140625 21.44140625 C-2.49609375 21.87890625 -2.49609375 21.87890625 -6.05859375 21.44140625 C-7.99609375 18.94140625 -7.99609375 18.94140625 -9.05859375 16.44140625 C-7.73859375 16.11140625 -6.41859375 15.78140625 -5.05859375 15.44140625 C-4.72859375 16.10140625 -4.39859375 16.76140625 -4.05859375 17.44140625 C-2.73859375 17.44140625 -1.41859375 17.44140625 -0.05859375 17.44140625 C0.60140625 16.12140625 1.26140625 14.80140625 1.94140625 13.44140625 C1.03390625 13.64765625 0.12640625 13.85390625 -0.80859375 14.06640625 C-4.05859375 14.44140625 -4.05859375 14.44140625 -6.37109375 14.00390625 C-8.73186087 11.81801077 -8.92859241 9.54339931 -9.14453125 6.41796875 C-9.05859375 4.44140625 -9.05859375 4.44140625 -8.12109375 1.94140625 C-5.48406231 0.0235652 -3.22489228 -0.18410987 0 0 Z " fill="#0B0B0B" transform="translate(176.05859375,144.55859375)"/>
<path d="M0 0 C6.6 0 13.2 0 20 0 C20 1.65 20 3.3 20 5 C17.59375 7.01953125 17.59375 7.01953125 14.5 8.8125 C13.4790625 9.41707031 12.458125 10.02164063 11.40625 10.64453125 C10.6121875 11.09183594 9.818125 11.53914062 9 12 C12.96 12.33 16.92 12.66 21 13 C21 14.32 21 15.64 21 17 C14.07 17 7.14 17 0 17 C1 12 1 12 3.50390625 9.98046875 C4.51324219 9.38878906 5.52257812 8.79710937 6.5625 8.1875 C7.57441406 7.58292969 8.58632812 6.97835937 9.62890625 6.35546875 C10.41136719 5.90816406 11.19382812 5.46085938 12 5 C8.04 4.67 4.08 4.34 0 4 C0 2.68 0 1.36 0 0 Z " fill="#121212" transform="translate(85,223)"/>
<path d="M0 0 C2.82080379 0.61262631 5.13808856 1.47154809 7.671875 2.84765625 C8.33574219 3.20537109 8.99960937 3.56308594 9.68359375 3.93164062 C10.36550781 4.30482422 11.04742187 4.67800781 11.75 5.0625 C12.44738281 5.43955078 13.14476562 5.81660156 13.86328125 6.20507812 C15.57768302 7.13273388 17.28913661 8.06583454 19 9 C18.67 10.32 18.34 11.64 18 13 C12.39 13 6.78 13 1 13 C1 13.66 1 14.32 1 15 C1.86625 15.268125 2.7325 15.53625 3.625 15.8125 C6.91791964 16.97111987 9.91127875 18.38209839 13 20 C12.67 21.32 12.34 22.64 12 24 C7.37324343 22.6077541 3.35313769 20.70479016 -0.875 18.375 C-2.02742188 17.74335938 -3.17984375 17.11171875 -4.3671875 16.4609375 C-5.67042969 15.73777344 -5.67042969 15.73777344 -7 15 C-6.67 13.35 -6.34 11.7 -6 10 C1.92 9.505 1.92 9.505 10 9 C6.37 7.02 2.74 5.04 -1 3 C-0.67 2.01 -0.34 1.02 0 0 Z " fill="#0C0C0C" transform="translate(272,309)"/>
<path d="M0 0 C2.9375 2.4375 2.9375 2.4375 5 5 C5.33 5.33 5.66 5.66 6 6 C5.71269945 8.33944736 5.38063221 10.6739143 5 13 C4.01 13 3.02 13 2 13 C1 10 1 10 0.5 7.375 C0.23747474 5.05538548 0.23747474 5.05538548 -1 4 C-5.91041909 4.21888215 -5.91041909 4.21888215 -9.9375 6.75 C-11.1940179 9.41086144 -11.38282495 11.09053036 -11 14 C-9.16116119 16.28728734 -9.16116119 16.28728734 -6.375 16.125 C-5.59125 16.08375 -4.8075 16.0425 -4 16 C-4.66 14.02 -5.32 12.04 -6 10 C-3 10 -3 10 -0.3125 12.5 C0.450625 13.325 1.21375 14.15 2 15 C0.55873214 18.36295835 -1.20592655 20.62927102 -4 23 C-4.99 23 -5.98 23 -7 23 C-7 22.01 -7 21.02 -7 20 C-8.11375 19.9071875 -8.11375 19.9071875 -9.25 19.8125 C-12.94570593 18.72058689 -14.03449378 17.27584369 -16 14 C-16.625 11.125 -16.625 11.125 -16 8 C-11.80375629 1.76960157 -7.85452351 -1.39936913 0 0 Z " fill="#0C0C0B" transform="translate(128,333)"/>
<path d="M0 0 C1.5 1.875 1.5 1.875 1.9375 4.875 C1.5 7.875 1.5 7.875 0.5 9.6875 C-2.68068454 11.57603144 -5.83469879 11.57456547 -9.5 11.875 C-9.17 14.845 -8.84 17.815 -8.5 20.875 C-9.82 20.875 -11.14 20.875 -12.5 20.875 C-13.49 13.945 -14.48 7.015 -15.5 -0.125 C-4.96153846 -2.23269231 -4.96153846 -2.23269231 0 0 Z " fill="#0C0C0C" transform="translate(214.5,360.125)"/>
<path d="M0 0 C2.67154895 2.46063719 3.94565325 3.88589167 4.125 7.5625 C2.54633249 10.98294628 0.20531406 12.15864937 -3 14 C-2.67 16.64 -2.34 19.28 -2 22 C-3.32 22 -4.64 22 -6 22 C-9.96 13.585 -9.96 13.585 -14 5 C-4.65250301 -0.58059522 -4.65250301 -0.58059522 0 0 Z " fill="#090909" transform="translate(238,350)"/>
<path d="M0 0 C0.99 0.33 1.98 0.66 3 1 C1.55746343 4.36591866 -0.33264727 6.51047079 -3 9 C-2.67 9.99 -2.34 10.98 -2 12 C2.14670039 9.62370911 2.14670039 9.62370911 5 6 C5.99 6.33 6.98 6.66 8 7 C7.65120368 10.25543229 6.97866739 11.01873107 4.4375 13.25 C3.633125 13.8275 2.82875 14.405 2 15 C2.66 16.32 3.32 17.64 4 19 C4.45890625 18.566875 4.9178125 18.13375 5.390625 17.6875 C6.00421875 17.130625 6.6178125 16.57375 7.25 16 C7.85328125 15.443125 8.4565625 14.88625 9.078125 14.3125 C11 13 11 13 15 13 C15 16 15 16 12.8125 18.26171875 C11.884375 19.06222656 10.95625 19.86273438 10 20.6875 C9.071875 21.49574219 8.14375 22.30398438 7.1875 23.13671875 C6.465625 23.75160156 5.74375 24.36648438 5 25 C-0.29012124 20.59156563 -5.18808428 15.92440206 -10 11 C-8.56285993 7.64170896 -6.79022601 5.60029302 -4.0625 3.1875 C-3.02802734 2.24970703 -3.02802734 2.24970703 -1.97265625 1.29296875 C-1.32167969 0.86628906 -0.67070312 0.43960937 0 0 Z " fill="#0E0E0E" transform="translate(257,332)"/>
<path d="M0 0 C3.10343799 1.20689255 6.01193893 2.50596946 9 4 C9 16.54 9 29.08 9 42 C7.35 42 5.7 42 4 42 C4 29.13 4 16.26 4 3 C2.68 2.34 1.36 1.68 0 1 C0 0.67 0 0.34 0 0 Z " fill="#B1B1B1" transform="translate(88,29)"/>
<path d="M0 0 C3.96 0 7.92 0 12 0 C12 2.64 12 5.28 12 8 C13.98 8.66 15.96 9.32 18 10 C18 11.32 18 12.64 18 14 C12.06 14 6.12 14 0 14 C0 9.38 0 4.76 0 0 Z " fill="#BABABA" transform="translate(337,78)"/>
<path d="M0 0 C1.65 0 3.3 0 5 0 C5 12.54 5 25.08 5 38 C3.35 38 1.7 38 0 38 C0 25.46 0 12.92 0 0 Z " fill="#B3B3B3" transform="translate(127,27)"/>
<path d="M0 0 C0 1.32 0 2.64 0 4 C-1.32 4.33 -2.64 4.66 -4 5 C-3.81535634 9.34184202 -3.81535634 9.34184202 -2 13 C-0.33570949 13.09823937 1.33281931 13.12973631 3 13.125 C3.9075 13.12757813 4.815 13.13015625 5.75 13.1328125 C7.96966611 13.25173779 7.96966611 13.25173779 9 12 C9.04080783 10.00041636 9.04254356 7.99954746 9 6 C7.68 5.34 6.36 4.68 5 4 C5 2.68 5 1.36 5 0 C12.25806452 2.09677419 12.25806452 2.09677419 14 5 C14.77669903 11.99029126 14.77669903 11.99029126 12.125 15.4375 C7.42996233 18.88973358 2.66514193 18.56986635 -3 18 C-6.03899731 16.33578719 -6.65351325 15.1680308 -7.62109375 11.90625 C-8.0794922 9.47227594 -8.26744067 7.46396156 -8 5 C-4.32653061 0 -4.32653061 0 0 0 Z " fill="#121111" transform="translate(286,222)"/>
<path d="M0 0 C0.99 0 1.98 0 3 0 C3 5.61 3 11.22 3 17 C4.98 17 6.96 17 9 17 C10.24200752 11.6822785 11.30834212 6.41798672 12 1 C13.32 1 14.64 1 16 1 C16.43936419 7.5904628 15.63744979 15.35113878 11.67578125 20.83203125 C8.84428945 22.80549523 6.36429184 22.0738192 3.09765625 21.55859375 C1 21 1 21 -1.0625 19.5 C-3.24632948 13.67645473 -2.12329866 6.99092621 -1 1 C-0.67 0.67 -0.34 0.34 0 0 Z " fill="#0E0E0E" transform="translate(171,359)"/>
<path d="M0 0 C0 1.32 0 2.64 0 4 C-1.98 4.33 -3.96 4.66 -6 5 C-6 7.64 -6 10.28 -6 13 C-3.03 13.495 -3.03 13.495 0 14 C0 15.32 0 16.64 0 18 C-4.26948952 17.28298649 -8.18063511 15.96429029 -12.25 14.5 C-13.49265625 14.0565625 -14.7353125 13.613125 -16.015625 13.15625 C-19 12 -19 12 -20 11 C-20.04063832 9.33382885 -20.042721 7.66611905 -20 6 C-17.04329782 4.99513105 -14.08438423 3.99693976 -11.125 3 C-10.28324219 2.71382812 -9.44148438 2.42765625 -8.57421875 2.1328125 C-7.76855469 1.86210937 -6.96289062 1.59140625 -6.1328125 1.3125 C-5.38918457 1.06113281 -4.64555664 0.80976563 -3.87939453 0.55078125 C-2 0 -2 0 0 0 Z " fill="#151515" transform="translate(299,252)"/>
<path d="M0 0 C1.05960938 0.00676758 1.05960938 0.00676758 2.140625 0.01367188 C3.88545275 0.02546125 5.630237 0.04339676 7.375 0.0625 C7.375 1.3825 7.375 2.7025 7.375 4.0625 C-1.04 4.5575 -1.04 4.5575 -9.625 5.0625 C-9.295 7.3725 -8.965 9.6825 -8.625 12.0625 C-3.345 12.3925 1.935 12.7225 7.375 13.0625 C7.375 14.3825 7.375 15.7025 7.375 17.0625 C4.79103321 17.14362454 2.20962432 17.20304748 -0.375 17.25 C-1.10460937 17.27513672 -1.83421875 17.30027344 -2.5859375 17.32617188 C-5.7843111 17.36978606 -8.19564972 17.2785425 -11.078125 15.828125 C-13.46593123 13.1026492 -13.54341991 10.73992787 -13.80078125 7.22265625 C-13.625 5.0625 -13.625 5.0625 -11.8125 2.5625 C-7.82800049 -0.16972824 -4.70203024 -0.05638966 0 0 Z " fill="#131313" transform="translate(97.625,191.9375)"/>
<path d="M0 0 C0.84681133 5.08086796 1.09038099 9.84828377 1 15 C0.01 15 -0.98 15 -2 15 C-2.33 11.37 -2.66 7.74 -3 4 C-4.65 4 -6.3 4 -8 4 C-7.67 7.96 -7.34 11.92 -7 16 C-7.99 16 -8.98 16 -10 16 C-10.33 12.37 -10.66 8.74 -11 5 C-12.98 5 -14.96 5 -17 5 C-16.67 5.66 -16.34 6.32 -16 7 C-15.93003986 8.70702735 -15.91559846 10.41668003 -15.9375 12.125 C-15.94652344 13.03507812 -15.95554687 13.94515625 -15.96484375 14.8828125 C-15.97644531 15.58148438 -15.98804687 16.28015625 -16 17 C-16.99 17.33 -17.98 17.66 -19 18 C-19.85298376 14.32612505 -20.10789471 10.9552607 -20.0625 7.1875 C-20.05347656 6.21167969 -20.04445313 5.23585938 -20.03515625 4.23046875 C-20.02355469 3.49441406 -20.01195313 2.75835937 -20 2 C-16.85425511 1.66582848 -13.70838992 1.33280322 -10.5625 1 C-9.21575195 0.85691406 -9.21575195 0.85691406 -7.84179688 0.7109375 C-6.98779297 0.62070312 -6.13378906 0.53046875 -5.25390625 0.4375 C-4.46314697 0.35371094 -3.6723877 0.26992188 -2.85766602 0.18359375 C-1 0 -1 0 0 0 Z " fill="#070707" transform="translate(105,280)"/>
<path d="M0 0 C3.84617282 1.92308641 7.05770137 4.51006563 9.5 8.0625 C10.27270453 10.5351545 10.39605549 12.48747283 10.125 15.0625 C8.125 17.0625 8.125 17.0625 5.875 17.625 C2.0528817 16.84320307 0.94914257 14.74436677 -1.3828125 11.75390625 C-3.27666141 9.60721364 -5.12963231 8.78921498 -7.875 8.0625 C-6.35406482 4.51365124 -4.28262655 0.14275422 0 0 Z " fill="#D6151B" transform="translate(204.875,241.9375)"/>
<path d="M0 0 C6.6 0 13.2 0 20 0 C20 1.32 20 2.64 20 4 C17.03 4 14.06 4 11 4 C11 6.97 11 9.94 11 13 C13.97 13 16.94 13 20 13 C20 13.99 20 14.98 20 16 C13.4 16 6.8 16 0 16 C0 15.01 0 14.02 0 13 C2.64 13 5.28 13 8 13 C8 10.03 8 7.06 8 4 C5.36 4 2.72 4 0 4 C0 2.68 0 1.36 0 0 Z " fill="#000000" transform="translate(279,192)"/>
<path d="M0 0 C3.96 0 7.92 0 12 0 C12 0.99 12 1.98 12 3 C9.03 3 6.06 3 3 3 C3 4.32 3 5.64 3 7 C4.093125 6.938125 5.18625 6.87625 6.3125 6.8125 C10 7 10 7 11.9375 8.0625 C13.63902633 11.1652833 13.42519574 13.53769185 13 17 C11.4375 19.4375 11.4375 19.4375 9 21 C4.59796571 21.46337203 2.7205836 21.48038907 -1 19 C-1 17.68 -1 16.36 -1 15 C0.32 15.33 1.64 15.66 3 16 C3 16.66 3 17.32 3 18 C4.98 17.34 6.96 16.68 9 16 C8.67 14.35 8.34 12.7 8 11 C3.545 11.495 3.545 11.495 -1 12 C-0.67 8.04 -0.34 4.08 0 0 Z " fill="#080808" transform="translate(239,145)"/>
<path d="M0 0 C4.39383706 1.59623144 8.28995807 3.78024333 12.3125 6.125 C12.95767578 6.49753906 13.60285156 6.87007812 14.26757812 7.25390625 C15.84675945 8.16632213 17.42361864 9.08275509 19 10 C19 12.64 19 15.28 19 18 C16.76955389 16.89835882 14.54064354 15.79378106 12.3125 14.6875 C11.68666016 14.37876953 11.06082031 14.07003906 10.41601562 13.75195312 C8.60288521 12.85013433 6.80121973 11.92537911 5 11 C4.030625 10.5153125 3.06125 10.030625 2.0625 9.53125 C0 8 0 8 -0.48828125 5.95703125 C-0.32552083 3.97135417 -0.16276042 1.98567708 0 0 Z " fill="#BABABA" transform="translate(99,35)"/>
<path d="M0 0 C1.8125 1.125 1.8125 1.125 3 3 C3.125 5.9375 3.125 5.9375 3 9 C3.33 10.32 3.66 11.64 4 13 C1.36 11.02 -1.28 9.04 -4 7 C-3.34 8.98 -2.68 10.96 -2 13 C-3 14 -3 14 -5.375 14.25 C-8 14 -8 14 -9.875 12.9375 C-11 11 -11 11 -11 7.5625 C-9.42766436 1.96105428 -5.97346488 -1.10037511 0 0 Z " fill="#B3B2B2" transform="translate(127,336)"/>
<path d="M0 0 C1.32 0 2.64 0 4 0 C4 9.24 4 18.48 4 28 C2.68 28 1.36 28 0 28 C0 18.76 0 9.52 0 0 Z " fill="#C4C4C4" transform="translate(158,27)"/>
<path d="M0 0 C0.99 0 1.98 0 3 0 C3 5.61 3 11.22 3 17 C2.01 17 1.02 17 0 17 C0 14.69 0 12.38 0 10 C-5.61 10 -11.22 10 -17 10 C-17 9.01 -17 8.02 -17 7 C-11.39 7 -5.78 7 0 7 C0 4.69 0 2.38 0 0 Z " fill="#000000" transform="translate(102,252)"/>
<path d="M0 0 C2.625 0.375 2.625 0.375 5 1 C5.05389087 2.95803507 5.09274217 4.91648909 5.125 6.875 C5.14820313 7.96554688 5.17140625 9.05609375 5.1953125 10.1796875 C5 13 5 13 3 15 C-0.53571429 14.46428571 -0.53571429 14.46428571 -2 13 C-2.12487758 11.19072719 -2.17570846 9.37603893 -2.1875 7.5625 C-2.20167969 6.57378906 -2.21585938 5.58507812 -2.23046875 4.56640625 C-2 2 -2 2 0 0 Z " fill="#CCCBCB" transform="translate(208,148)"/>
<path d="M0 0 C0.99 0 1.98 0 3 0 C3 6.93 3 13.86 3 21 C1.68 21 0.36 21 -1 21 C-1 16.05 -1 11.1 -1 6 C-2.32 6 -3.64 6 -5 6 C-4.67 5.01 -4.34 4.02 -4 3 C-3.01 3 -2.02 3 -1 3 C-0.67 2.01 -0.34 1.02 0 0 Z " fill="#040404" transform="translate(139,145)"/>
<path d="M0 0 C0.33 0 0.66 0 1 0 C1 4.29 1 8.58 1 13 C-2.63 13 -6.26 13 -10 13 C-10 11 -10 11 -7.8125 8.75 C-6.884375 7.8425 -5.95625 6.935 -5 6 C-4.07094466 4.90623678 -3.15386074 3.80217375 -2.25 2.6875 C-1.5075 1.800625 -0.765 0.91375 0 0 Z " fill="#B3B3B3" transform="translate(68,20)"/>
<path d="M0 0 C0.99 0 1.98 0 3 0 C3 0.99 3 1.98 3 3 C4.32 3 5.64 3 7 3 C7 3.66 7 4.32 7 5 C6.34 5.66 5.68 6.32 5 7 C4.3574765 9.06874034 4.3574765 9.06874034 4 11 C3.01 10.34 2.02 9.68 1 9 C0.34 9.66 -0.32 10.32 -1 11 C-1.66 10.67 -2.32 10.34 -3 10 C-3 8.68 -3 7.36 -3 6 C-3.33 5.01 -3.66 4.02 -4 3 C-2.68 3 -1.36 3 0 3 C0 2.01 0 1.02 0 0 Z " fill="#E21319" transform="translate(287,148)"/>
<path d="M0 0 C0.99 0 1.98 0 3 0 C3 0.99 3 1.98 3 3 C4.32 3 5.64 3 7 3 C7 3.66 7 4.32 7 5 C6.34 5.66 5.68 6.32 5 7 C5.33 7.99 5.66 8.98 6 10 C5.21625 9.79375 4.4325 9.5875 3.625 9.375 C2.75875 9.25125 1.8925 9.1275 1 9 C0.34 9.66 -0.32 10.32 -1 11 C-2.07525194 8.34771188 -3.09456151 5.71631546 -4 3 C-2.68 3 -1.36 3 0 3 C0 2.01 0 1.02 0 0 Z " fill="#E31219" transform="translate(96,148)"/>
<path d="M0 0 C2.31 0 4.62 0 7 0 C7 2.97 7 5.94 7 9 C4.69 9 2.38 9 0 9 C0 6.03 0 3.06 0 0 Z " fill="#000000" transform="translate(73,51)"/>
<path d="M0 0 C1.65 0 3.3 0 5 0 C5 4.95 5 9.9 5 15 C1.16391142 11.16391142 -0.11551945 9.12547086 -0.125 3.75 C-0.08375 2.5125 -0.0425 1.275 0 0 Z " fill="#C3C3C3" transform="translate(273,35)"/>
<path d="M0 0 C0 2 0 2 -1.6875 4.625 C-3.88090235 6.8119889 -5.07413113 7.00744901 -8.2265625 7.32421875 C-11.49754977 7.31352925 -14.73642518 7.21502323 -18 7 C-15.38056097 4.38056097 -12.42526027 3.55802162 -9 2.375 C-8.03707031 2.03082031 -8.03707031 2.03082031 -7.0546875 1.6796875 C-2.27557664 0 -2.27557664 0 0 0 Z " fill="#B3B2B2" transform="translate(298,126)"/>
<path d="M0 0 C1.98 0 3.96 0 6 0 C6 2.97 6 5.94 6 9 C4.02 9 2.04 9 0 9 C0 6.03 0 3.06 0 0 Z " fill="#000000" transform="translate(82,51)"/>
<path d="M0 0 C5.66153846 1.47692308 5.66153846 1.47692308 7.375 4.125 C7.58125 4.74375 7.7875 5.3625 8 6 C7.34 6.66 6.68 7.32 6 8 C2.55834679 7.64700993 0.93127462 6.95418308 -2 5 C-1.34 3.35 -0.68 1.7 0 0 Z " fill="#A5A4A4" transform="translate(147,353)"/>
<path d="M0 0 C2.125 0.375 2.125 0.375 4 1 C4 3.64 4 6.28 4 9 C2.02 9 0.04 9 -2 9 C-2.125 5.625 -2.125 5.625 -2 2 C-1.34 1.34 -0.68 0.68 0 0 Z " fill="#999998" transform="translate(291,287)"/>
<path d="M0 0 C2 0.9375 2 0.9375 3.25 4 C3.4975 4.969375 3.745 5.93875 4 6.9375 C3.34 7.5975 2.68 8.2575 2 8.9375 C1.01 8.9375 0.02 8.9375 -1 8.9375 C-3.10770759 6.04915997 -4 4.55287605 -4 0.9375 C-2 -0.0625 -2 -0.0625 0 0 Z " fill="#B7B7B7" transform="translate(108,311.0625)"/>
<path d="M0 0 C2.97 0.495 2.97 0.495 6 1 C6 3.31 6 5.62 6 8 C4.02 8 2.04 8 0 8 C0 5.36 0 2.72 0 0 Z " fill="#000000" transform="translate(216,55)"/>
<path d="M0 0 C1.98 0 3.96 0 6 0 C6 2.64 6 5.28 6 8 C3.03 7.505 3.03 7.505 0 7 C0 4.69 0 2.38 0 0 Z " fill="#000000" transform="translate(175,53)"/>
<path d="M0 0 C-0.3125 1.875 -0.3125 1.875 -1 4 C-4 6 -4 6 -6.1875 5.625 C-6.785625 5.41875 -7.38375 5.2125 -8 5 C-8.33 3.68 -8.66 2.36 -9 1 C-5.64919071 -1.10976881 -3.77897651 -1.0497157 0 0 Z " fill="#979696" transform="translate(238,355)"/>
<path d="M0 0 C2.97 0.495 2.97 0.495 6 1 C6 3.31 6 5.62 6 8 C4.02 8 2.04 8 0 8 C0 5.36 0 2.72 0 0 Z " fill="#000000" transform="translate(255,57)"/>
<path d="M0 0 C2.64 0 5.28 0 8 0 C7.67 1.65 7.34 3.3 7 5 C4.69 5.33 2.38 5.66 0 6 C0 4.02 0 2.04 0 0 Z " fill="#9A9A99" transform="translate(204,363)"/>
<path d="M0 0 C1.67542976 0.28604898 3.34385343 0.61781233 5 1 C5.38218767 2.65614657 5.71395102 4.32457024 6 6 C5 7 5 7 1.9375 7.0625 C0.4834375 7.0315625 0.4834375 7.0315625 -1 7 C-1.04254356 5.00045254 -1.04080783 2.99958364 -1 1 C-0.67 0.67 -0.34 0.34 0 0 Z " fill="#CECECE" transform="translate(172,148)"/>
<path d="M0 0 C0.33 0 0.66 0 1 0 C1 3.3 1 6.6 1 10 C-1.64 10 -4.28 10 -7 10 C-6.02223933 8.51990357 -5.0427506 7.04094856 -4.0625 5.5625 C-3.51722656 4.73878906 -2.97195313 3.91507813 -2.41015625 3.06640625 C-1 1 -1 1 0 0 Z " fill="#B7B7B7" transform="translate(324,50)"/>
<path d="M0 0 C1.98 0 3.96 0 6 0 C6 2.31 6 4.62 6 7 C4.02 7 2.04 7 0 7 C0 4.69 0 2.38 0 0 Z " fill="#000000" transform="translate(79,94)"/>
<path d="M0 0 C1.98 0 3.96 0 6 0 C6 2.31 6 4.62 6 7 C4.02 7 2.04 7 0 7 C0 4.69 0 2.38 0 0 Z " fill="#000000" transform="translate(328,86)"/>
<path d="M0 0 C1.98 0 3.96 0 6 0 C6 2.31 6 4.62 6 7 C4.02 7 2.04 7 0 7 C0 4.69 0 2.38 0 0 Z " fill="#000000" transform="translate(328,69)"/>
<path d="M0 0 C1.98 0 3.96 0 6 0 C6 2.31 6 4.62 6 7 C4.02 7 2.04 7 0 7 C0 4.69 0 2.38 0 0 Z " fill="#000000" transform="translate(79,67)"/>
<path d="M0 0 C1.98 0 3.96 0 6 0 C6 2.31 6 4.62 6 7 C4.02 7 2.04 7 0 7 C0 4.69 0 2.38 0 0 Z " fill="#000000" transform="translate(208,55)"/>
<path d="M0 0 C1.32 0 2.64 0 4 0 C4 2.64 4 5.28 4 8 C2.35 8 0.7 8 -1 8 C-1.04241723 5.66705225 -1.04092937 3.33297433 -1 1 C-0.67 0.67 -0.34 0.34 0 0 Z " fill="#979796" transform="translate(282,287)"/>
<path d="M0 0 C1.65 0 3.3 0 5 0 C5 2.64 5 5.28 5 8 C3.35 7.67 1.7 7.34 0 7 C0 4.69 0 2.38 0 0 Z " fill="#000000" transform="translate(232,56)"/>
<path d="M0 0 C1.65 0 3.3 0 5 0 C5 2.31 5 4.62 5 7 C3.35 7 1.7 7 0 7 C0 4.69 0 2.38 0 0 Z " fill="#000000" transform="translate(263,58)"/>
<path d="M0 0 C1.65 0 3.3 0 5 0 C5 2.31 5 4.62 5 7 C3.35 7 1.7 7 0 7 C0 4.69 0 2.38 0 0 Z " fill="#000000" transform="translate(248,57)"/>
<path d="M0 0 C1.65 0 3.3 0 5 0 C5 2.31 5 4.62 5 7 C3.35 7 1.7 7 0 7 C0 4.69 0 2.38 0 0 Z " fill="#000000" transform="translate(224,56)"/>
<path d="M0 0 C1.65 0 3.3 0 5 0 C5 2.31 5 4.62 5 7 C3.35 7 1.7 7 0 7 C0 4.69 0 2.38 0 0 Z " fill="#000000" transform="translate(184,54)"/>
<path d="M0 0 C0.33 0 0.66 0 1 0 C1 2.97 1 5.94 1 9 C-1.31 9 -3.62 9 -6 9 C-5.02501855 7.4972763 -4.04490611 5.99788037 -3.0625 4.5 C-2.51722656 3.6646875 -1.97195312 2.829375 -1.41015625 1.96875 C-0.94480469 1.3190625 -0.47945312 0.669375 0 0 Z " fill="#B9B9B9" transform="translate(146,16)"/>
<path d="M0 0 C2.97 0.495 2.97 0.495 6 1 C6 2.32 6 3.64 6 5 C4.35 5 2.7 5 1 5 C0.67 3.35 0.34 1.7 0 0 Z " fill="#ABABAA" transform="translate(151,3)"/>
<path d="M0 0 C0.66 0.66 1.32 1.32 2 2 C0.87926138 2.83905565 -0.24674547 3.67107831 -1.375 4.5 C-2.00148438 4.9640625 -2.62796875 5.428125 -3.2734375 5.90625 C-5 7 -5 7 -7 7 C-5.66667905 3.00003714 -3.5042173 2.16217663 0 0 Z " fill="#101010" transform="translate(323,104)"/>
<path d="M0 0 C-3.00617269 3.00617269 -5.82381598 2.59585316 -10 3 C-10 2.01 -10 1.02 -10 0 C-6.33694766 -0.74926071 -3.57644848 -1.2380014 0 0 Z " fill="#242424" transform="translate(118,68)"/>
<path d="M0 0 C3.0831351 1.19899698 6.06279492 2.47700477 9 4 C8.67 4.99 8.34 5.98 8 7 C5.03 5.35 2.06 3.7 -1 2 C-0.67 1.34 -0.34 0.68 0 0 Z " fill="#111111" transform="translate(108,48)"/>
<path d="M0 0 C0.66 0.33 1.32 0.66 2 1 C2 2.65 2 4.3 2 6 C0.68 6 -0.64 6 -2 6 C-1.34 4.02 -0.68 2.04 0 0 Z " fill="#A1A0A0" transform="translate(276,27)"/>
</svg>
